 <svg width="254" height="250" viewBox="0 0 254 250" fill="none" xmlns="http://www.w3.org/2000/svg">
<path d="M126.845 145.149C137.428 145.149 146.008 136.569 146.008 125.986C146.008 115.402 137.428 106.823 126.845 106.823C116.261 106.823 107.682 115.402 107.682 125.986C107.682 136.569 116.261 145.149 126.845 145.149Z" fill="black"/>
<path d="M157.778 177.48C168.362 177.48 176.941 168.901 176.941 158.317C176.941 147.734 168.362 139.154 157.778 139.154C147.195 139.154 138.615 147.734 138.615 158.317C138.615 168.901 147.195 177.48 157.778 177.48Z" fill="black"/>
<path d="M93.9638 177.48C104.547 177.48 113.127 168.901 113.127 158.317C113.127 147.734 104.547 139.154 93.9638 139.154C83.3803 139.154 74.8008 147.734 74.8008 158.317C74.8008 168.901 83.3803 177.48 93.9638 177.48Z" fill="black"/>
<path d="M157.778 111.994C168.362 111.994 176.941 103.414 176.941 92.831C176.941 82.2475 168.362 73.668 157.778 73.668C147.195 73.668 138.615 82.2475 138.615 92.831C138.615 103.414 147.195 111.994 157.778 111.994Z" fill="black"/>
<path d="M93.9638 111.994C104.547 111.994 113.127 103.414 113.127 92.831C113.127 82.2475 104.547 73.668 93.9638 73.668C83.3803 73.668 74.8008 82.2475 74.8008 92.831C74.8008 103.414 83.3803 111.994 93.9638 111.994Z" fill="black"/>
<path d="M66.9894 139.34C74.0446 139.34 79.7639 133.62 79.7639 126.565C79.7639 119.51 74.0446 113.791 66.9894 113.791C59.9342 113.791 54.2148 119.51 54.2148 126.565C54.2148 133.62 59.9342 139.34 66.9894 139.34Z" fill="black"/>
<path d="M66.9894 197.877C74.0446 197.877 79.7639 192.157 79.7639 185.102C79.7639 178.047 74.0446 172.328 66.9894 172.328C59.9342 172.328 54.2148 178.047 54.2148 185.102C54.2148 192.157 59.9342 197.877 66.9894 197.877Z" fill="black"/>
<path d="M92.4605 213.963C97.5107 213.963 101.605 209.869 101.605 204.819C101.605 199.769 97.5107 195.675 92.4605 195.675C87.4104 195.675 83.3164 199.769 83.3164 204.819C83.3164 209.869 87.4104 213.963 92.4605 213.963Z" fill="black"/>
<path d="M159.845 213.963C164.895 213.963 168.989 209.869 168.989 204.819C168.989 199.769 164.895 195.675 159.845 195.675C154.795 195.675 150.701 199.769 150.701 204.819C150.701 209.869 154.795 213.963 159.845 213.963Z" fill="black"/>
<path d="M66.9894 76.2478C74.0446 76.2478 79.7639 70.5285 79.7639 63.4733C79.7639 56.4181 74.0446 50.6987 66.9894 50.6987C59.9342 50.6987 54.2148 56.4181 54.2148 63.4733C54.2148 70.5285 59.9342 76.2478 66.9894 76.2478Z" fill="black"/>
<path d="M93.9638 54.2918C99.7988 54.2918 104.529 49.5615 104.529 43.7265C104.529 37.8914 99.7988 33.1611 93.9638 33.1611C88.1287 33.1611 83.3984 37.8914 83.3984 43.7265C83.3984 49.5615 88.1287 54.2918 93.9638 54.2918Z" fill="black"/>
<path d="M160.015 54.2918C165.85 54.2918 170.58 49.5615 170.58 43.7265C170.58 37.8914 165.85 33.1611 160.015 33.1611C154.179 33.1611 149.449 37.8914 149.449 43.7265C149.449 49.5615 154.179 54.2918 160.015 54.2918Z" fill="black"/>
<path d="M43.6493 101.342C49.4844 101.342 54.2146 96.6118 54.2146 90.7768C54.2146 84.9417 49.4844 80.2114 43.6493 80.2114C37.8142 80.2114 33.084 84.9417 33.084 90.7768C33.084 96.6118 37.8142 101.342 43.6493 101.342Z" fill="black"/>
<path d="M206.919 101.342C212.754 101.342 217.484 96.6118 217.484 90.7768C217.484 84.9417 212.754 80.2114 206.919 80.2114C201.084 80.2114 196.354 84.9417 196.354 90.7768C196.354 96.6118 201.084 101.342 206.919 101.342Z" fill="black"/>
<path d="M43.9657 47.1248C49.8008 47.1248 54.531 42.3945 54.531 36.5595C54.531 30.7244 49.8008 25.9941 43.9657 25.9941C38.1307 25.9941 33.4004 30.7244 33.4004 36.5595C33.4004 42.3945 38.1307 47.1248 43.9657 47.1248Z" fill="black"/>
<path d="M215.679 47.1248C221.514 47.1248 226.244 42.3945 226.244 36.5595C226.244 30.7244 221.514 25.9941 215.679 25.9941C209.844 25.9941 205.113 30.7244 205.113 36.5595C205.113 42.3945 209.844 47.1248 215.679 47.1248Z" fill="black"/>
<path d="M43.9657 168.688C49.8008 168.688 54.531 163.958 54.531 158.122C54.531 152.287 49.8008 147.557 43.9657 147.557C38.1307 147.557 33.4004 152.287 33.4004 158.122C33.4004 163.958 38.1307 168.688 43.9657 168.688Z" fill="black"/>
<path d="M206.919 168.688C212.754 168.688 217.484 163.958 217.484 158.122C217.484 152.287 212.754 147.557 206.919 147.557C201.084 147.557 196.354 152.287 196.354 158.122C196.354 163.958 201.084 168.688 206.919 168.688Z" fill="black"/>
<path d="M38.2235 222.849C44.0586 222.849 48.7889 218.119 48.7889 212.284C48.7889 206.449 44.0586 201.719 38.2235 201.719C32.3885 201.719 27.6582 206.449 27.6582 212.284C27.6582 218.119 32.3885 222.849 38.2235 222.849Z" fill="black"/>
<path d="M214.067 222.849C219.902 222.849 224.633 218.119 224.633 212.284C224.633 206.449 219.902 201.719 214.067 201.719C208.232 201.719 203.502 206.449 203.502 212.284C203.502 218.119 208.232 222.849 214.067 222.849Z" fill="black"/>
<path d="M22.4904 189.141C25.7104 189.141 28.3207 186.531 28.3207 183.311C28.3207 180.091 25.7104 177.48 22.4904 177.48C19.2705 177.48 16.6602 180.091 16.6602 183.311C16.6602 186.531 19.2705 189.141 22.4904 189.141Z" fill="black"/>
<path d="M228.367 189.141C231.587 189.141 234.198 186.531 234.198 183.311C234.198 180.091 231.587 177.48 228.367 177.48C225.147 177.48 222.537 180.091 222.537 183.311C222.537 186.531 225.147 189.141 228.367 189.141Z" fill="black"/>
<path d="M5.83028 209.54C9.05025 209.54 11.6606 206.93 11.6606 203.71C11.6606 200.49 9.05025 197.879 5.83028 197.879C2.6103 197.879 0 200.49 0 203.71C0 206.93 2.6103 209.54 5.83028 209.54Z" fill="black"/>
<path d="M245.758 209.54C248.978 209.54 251.588 206.93 251.588 203.71C251.588 200.49 248.978 197.879 245.758 197.879C242.538 197.879 239.928 200.49 239.928 203.71C239.928 206.93 242.538 209.54 245.758 209.54Z" fill="black"/>
<path d="M14.7912 241.309C18.0112 241.309 20.6215 238.698 20.6215 235.478C20.6215 232.258 18.0112 229.648 14.7912 229.648C11.5712 229.648 8.96094 232.258 8.96094 235.478C8.96094 238.698 11.5712 241.309 14.7912 241.309Z" fill="black"/>
<path d="M237.953 241.309C241.173 241.309 243.784 238.698 243.784 235.478C243.784 232.258 241.173 229.648 237.953 229.648C234.733 229.648 232.123 232.258 232.123 235.478C232.123 238.698 234.733 241.309 237.953 241.309Z" fill="black"/>
<path d="M19.8225 17.4877C23.0424 17.4877 25.6527 14.8774 25.6527 11.6574C25.6527 8.43745 23.0424 5.82715 19.8225 5.82715C16.6025 5.82715 13.9922 8.43745 13.9922 11.6574C13.9922 14.8774 16.6025 17.4877 19.8225 17.4877Z" fill="black"/>
<path d="M236.295 17.4877C239.515 17.4877 242.125 14.8774 242.125 11.6574C242.125 8.43745 239.515 5.82715 236.295 5.82715C233.075 5.82715 230.465 8.43745 230.465 11.6574C230.465 14.8774 233.075 17.4877 236.295 17.4877Z" fill="black"/>
<path d="M48.383 12.6191C51.603 12.6191 54.2133 10.0087 54.2133 6.78877C54.2133 3.5688 51.603 0.958496 48.383 0.958496C45.163 0.958496 42.5527 3.5688 42.5527 6.78877C42.5527 10.0087 45.163 12.6191 48.383 12.6191Z" fill="black"/>
<path d="M206.918 12.6191C210.138 12.6191 212.748 10.0087 212.748 6.78877C212.748 3.5688 210.138 0.958496 206.918 0.958496C203.698 0.958496 201.088 3.5688 201.088 6.78877C201.088 10.0087 203.698 12.6191 206.918 12.6191Z" fill="black"/>
<path d="M68.9709 28.0907C72.1909 28.0907 74.8012 25.4804 74.8012 22.2605C74.8012 19.0405 72.1909 16.4302 68.9709 16.4302C65.7509 16.4302 63.1406 19.0405 63.1406 22.2605C63.1406 25.4804 65.7509 28.0907 68.9709 28.0907Z" fill="black"/>
<path d="M186.033 28.0907C189.253 28.0907 191.864 25.4804 191.864 22.2605C191.864 19.0405 189.253 16.4302 186.033 16.4302C182.813 16.4302 180.203 19.0405 180.203 22.2605C180.203 25.4804 182.813 28.0907 186.033 28.0907Z" fill="black"/>
<path d="M5.83028 50.4032C9.05025 50.4032 11.6606 47.7929 11.6606 44.573C11.6606 41.353 9.05025 38.7427 5.83028 38.7427C2.6103 38.7427 0 41.353 0 44.573C0 47.7929 2.6103 50.4032 5.83028 50.4032Z" fill="black"/>
<path d="M247.957 50.4032C251.177 50.4032 253.788 47.7929 253.788 44.573C253.788 41.353 251.177 38.7427 247.957 38.7427C244.737 38.7427 242.127 41.353 242.127 44.573C242.127 47.7929 244.737 50.4032 247.957 50.4032Z" fill="black"/>
<path d="M22.4904 70.5092C25.7104 70.5092 28.3207 67.8989 28.3207 64.6789C28.3207 61.4589 25.7104 58.8486 22.4904 58.8486C19.2705 58.8486 16.6602 61.4589 16.6602 64.6789C16.6602 67.8989 19.2705 70.5092 22.4904 70.5092Z" fill="black"/>
<path d="M230.463 70.5092C233.683 70.5092 236.293 67.8989 236.293 64.6789C236.293 61.4589 233.683 58.8486 230.463 58.8486C227.243 58.8486 224.633 61.4589 224.633 64.6789C224.633 67.8989 227.243 70.5092 230.463 70.5092Z" fill="black"/>
<path d="M44.0529 249.709C47.2729 249.709 49.8832 247.099 49.8832 243.879C49.8832 240.659 47.2729 238.049 44.0529 238.049C40.833 238.049 38.2227 240.659 38.2227 243.879C38.2227 247.099 40.833 249.709 44.0529 249.709Z" fill="black"/>
<path d="M203.502 249.709C206.722 249.709 209.332 247.099 209.332 243.879C209.332 240.659 206.722 238.049 203.502 238.049C200.282 238.049 197.672 240.659 197.672 243.879C197.672 247.099 200.282 249.709 203.502 249.709Z" fill="black"/>
<path d="M66.9904 232.601C70.2104 232.601 72.8207 229.99 72.8207 226.77C72.8207 223.55 70.2104 220.94 66.9904 220.94C63.7705 220.94 61.1602 223.55 61.1602 226.77C61.1602 229.99 63.7705 232.601 66.9904 232.601Z" fill="black"/>
<path d="M182.774 232.601C185.994 232.601 188.604 229.99 188.604 226.77C188.604 223.55 185.994 220.94 182.774 220.94C179.554 220.94 176.943 223.55 176.943 226.77C176.943 229.99 179.554 232.601 182.774 232.601Z" fill="black"/>
<path d="M186.034 139.34C193.089 139.34 198.809 133.62 198.809 126.565C198.809 119.51 193.089 113.791 186.034 113.791C178.979 113.791 173.26 119.51 173.26 126.565C173.26 133.62 178.979 139.34 186.034 139.34Z" fill="black"/>
<path d="M186.034 197.877C193.089 197.877 198.809 192.157 198.809 185.102C198.809 178.047 193.089 172.328 186.034 172.328C178.979 172.328 173.26 178.047 173.26 185.102C173.26 192.157 178.979 197.877 186.034 197.877Z" fill="black"/>
<path d="M186.034 76.2478C193.089 76.2478 198.809 70.5285 198.809 63.4733C198.809 56.4181 193.089 50.6987 186.034 50.6987C178.979 50.6987 173.26 56.4181 173.26 63.4733C173.26 70.5285 178.979 76.2478 186.034 76.2478Z" fill="black"/>
<path d="M126.845 83.2835C133.9 83.2835 139.619 77.5641 139.619 70.5089C139.619 63.4537 133.9 57.7344 126.845 57.7344C119.79 57.7344 114.07 63.4537 114.07 70.5089C114.07 77.5641 119.79 83.2835 126.845 83.2835Z" fill="black"/>
<path d="M126.845 194.237C133.9 194.237 139.619 188.518 139.619 181.463C139.619 174.407 133.9 168.688 126.845 168.688C119.79 168.688 114.07 174.407 114.07 181.463C114.07 188.518 119.79 194.237 126.845 194.237Z" fill="black"/>
</svg>