<svg width="40" height="41" viewBox="0 0 40 41" fill="none" xmlns="http://www.w3.org/2000/svg">
<g clip-path="url(#clip0_215_2975)">
<path d="M20 4.36242C25.3434 4.36242 25.9706 4.38624 28.0826 4.48151C30.0358 4.56885 31.0917 4.89437 31.7984 5.17226C32.7352 5.53749 33.4022 5.96623 34.1009 6.66492C34.7995 7.36361 35.2362 8.03054 35.5935 8.96742C35.8635 9.67405 36.1969 10.73 36.2843 12.6832C36.3795 14.7951 36.4034 15.4224 36.4034 20.7658C36.4034 26.1091 36.3795 26.7364 36.2843 28.8483C36.1969 30.8015 35.8714 31.8575 35.5935 32.5641C35.2283 33.501 34.7995 34.1679 34.1009 34.8666C33.4022 35.5653 32.7352 36.002 31.7984 36.3592C31.0917 36.6292 30.0358 36.9627 28.0826 37.05C25.9706 37.1453 25.3434 37.1691 20 37.1691C14.6566 37.1691 14.0294 37.1453 11.9174 37.05C9.96428 36.9627 8.9083 36.6371 8.20167 36.3592C7.26479 35.994 6.59786 35.5653 5.89917 34.8666C5.20048 34.1679 4.7638 33.501 4.40651 32.5641C4.13657 31.8575 3.8031 30.8015 3.71576 28.8483C3.62049 26.7364 3.59667 26.1091 3.59667 20.7658C3.59667 15.4224 3.62049 14.7951 3.71576 12.6832C3.8031 10.73 4.12863 9.67405 4.40651 8.96742C4.77174 8.03054 5.20048 7.36361 5.89917 6.66492C6.59786 5.96623 7.26479 5.52955 8.20167 5.17226C8.9083 4.90231 9.96428 4.56885 11.9174 4.48151C14.0294 4.3783 14.6646 4.36242 20 4.36242ZM20 0.757812C14.5693 0.757812 13.8865 0.781631 11.7507 0.876907C9.62287 0.972183 8.16992 1.31359 6.89957 1.80585C5.58158 2.31399 4.47003 3.00474 3.35848 4.11629C2.24692 5.22784 1.56411 6.34733 1.04804 7.65738C0.555776 8.92772 0.214371 10.3807 0.119095 12.5164C0.023819 14.6443 0 15.3271 0 20.7578C0 26.1885 0.023819 26.8713 0.119095 29.0071C0.214371 31.1349 0.555776 32.5879 1.04804 33.8662C1.55617 35.1842 2.24692 36.2957 3.35848 37.4073C4.47003 38.5188 5.58952 39.2016 6.89957 39.7177C8.16992 40.21 9.62287 40.5514 11.7586 40.6467C13.8944 40.7419 14.5693 40.7658 20.008 40.7658C25.4466 40.7658 26.1215 40.7419 28.2573 40.6467C30.3851 40.5514 31.8381 40.21 33.1163 39.7177C34.4343 39.2096 35.5459 38.5188 36.6574 37.4073C37.769 36.2957 38.4518 35.1762 38.9679 33.8662C39.4601 32.5958 39.8015 31.1429 39.8968 29.0071C39.9921 26.8713 40.0159 26.1965 40.0159 20.7578C40.0159 15.3191 39.9921 14.6443 39.8968 12.5085C39.8015 10.3807 39.4601 8.92772 38.9679 7.64944C38.4597 6.33145 37.769 5.2199 36.6574 4.10835C35.5459 2.9968 34.4264 2.31399 33.1163 1.79791C31.846 1.30565 30.393 0.964244 28.2573 0.868968C26.1136 0.781631 25.4307 0.757812 20 0.757812Z" fill="#4B5563"/>
<path d="M20 4.36242C25.3434 4.36242 25.9706 4.38624 28.0826 4.48151C30.0358 4.56885 31.0917 4.89437 31.7984 5.17226C32.7352 5.53749 33.4022 5.96623 34.1009 6.66492C34.7995 7.36361 35.2362 8.03054 35.5935 8.96742C35.8635 9.67405 36.1969 10.73 36.2843 12.6832C36.3795 14.7951 36.4034 15.4224 36.4034 20.7658C36.4034 26.1091 36.3795 26.7364 36.2843 28.8483C36.1969 30.8015 35.8714 31.8575 35.5935 32.5641C35.2283 33.501 34.7995 34.1679 34.1009 34.8666C33.4022 35.5653 32.7352 36.002 31.7984 36.3592C31.0917 36.6292 30.0358 36.9627 28.0826 37.05C25.9706 37.1453 25.3434 37.1691 20 37.1691C14.6566 37.1691 14.0294 37.1453 11.9174 37.05C9.96428 36.9627 8.9083 36.6371 8.20167 36.3592C7.26479 35.994 6.59786 35.5653 5.89917 34.8666C5.20048 34.1679 4.7638 33.501 4.40651 32.5641C4.13657 31.8575 3.8031 30.8015 3.71576 28.8483C3.62049 26.7364 3.59667 26.1091 3.59667 20.7658C3.59667 15.4224 3.62049 14.7951 3.71576 12.6832C3.8031 10.73 4.12863 9.67405 4.40651 8.96742C4.77174 8.03054 5.20048 7.36361 5.89917 6.66492C6.59786 5.96623 7.26479 5.52955 8.20167 5.17226C8.9083 4.90231 9.96428 4.56885 11.9174 4.48151C14.0294 4.3783 14.6646 4.36242 20 4.36242Z" fill="#4B5563"/>
<path d="M20.0005 10.4922C14.3316 10.4922 9.72656 15.0892 9.72656 20.7661C9.72656 26.443 14.3236 31.04 20.0005 31.04C25.6773 31.04 30.2744 26.443 30.2744 20.7661C30.2744 15.0892 25.6773 10.4922 20.0005 10.4922ZM20.0005 27.4275C16.3165 27.4275 13.3312 24.4422 13.3312 20.7582C13.3312 17.0742 16.3165 14.0889 20.0005 14.0889C23.6845 14.0889 26.6698 17.0742 26.6698 20.7582C26.6698 24.4422 23.6845 27.4275 20.0005 27.4275Z" fill="#1A1D2D"/>
<path d="M30.679 12.4772C32.0033 12.4772 33.0768 11.4037 33.0768 10.0794C33.0768 8.75516 32.0033 7.68164 30.679 7.68164C29.3548 7.68164 28.2812 8.75516 28.2812 10.0794C28.2812 11.4037 29.3548 12.4772 30.679 12.4772Z" fill="#1A1D2D"/>
</g>
<defs>
<clipPath id="clip0_215_2975">
<rect width="40" height="40" fill="white" transform="translate(0 0.757812)"/>
</clipPath>
</defs>
</svg>
