<svg width="238" height="63" viewBox="0 0 238 63" fill="none" xmlns="http://www.w3.org/2000/svg">
<path d="M31.5954 36.5229C34.2315 36.5229 36.3686 34.3858 36.3686 31.7497C36.3686 29.1136 34.2315 26.9766 31.5954 26.9766C28.9593 26.9766 26.8223 29.1136 26.8223 31.7497C26.8223 34.3858 28.9593 36.5229 31.5954 36.5229Z" fill="url(#paint0_linear_216_4989)"/>
<path d="M39.3005 44.5756C41.9366 44.5756 44.0736 42.4386 44.0736 39.8024C44.0736 37.1663 41.9366 35.0293 39.3005 35.0293C36.6644 35.0293 34.5273 37.1663 34.5273 39.8024C34.5273 42.4386 36.6644 44.5756 39.3005 44.5756Z" fill="url(#paint1_linear_216_4989)"/>
<path d="M23.404 44.5756C26.0401 44.5756 28.1771 42.4386 28.1771 39.8024C28.1771 37.1663 26.0401 35.0293 23.404 35.0293C20.7679 35.0293 18.6309 37.1663 18.6309 39.8024C18.6309 42.4386 20.7679 44.5756 23.404 44.5756Z" fill="url(#paint2_linear_216_4989)"/>
<path d="M39.3005 28.265C41.9366 28.265 44.0736 26.128 44.0736 23.4919C44.0736 20.8558 41.9366 18.7188 39.3005 18.7188C36.6644 18.7188 34.5273 20.8558 34.5273 23.4919C34.5273 26.128 36.6644 28.265 39.3005 28.265Z" fill="url(#paint3_linear_216_4989)"/>
<path d="M23.404 28.265C26.0401 28.265 28.1771 26.128 28.1771 23.4919C28.1771 20.8558 26.0401 18.7188 23.404 18.7188C20.7679 18.7188 18.6309 20.8558 18.6309 23.4919C18.6309 26.128 20.7679 28.265 23.404 28.265Z" fill="url(#paint4_linear_216_4989)"/>
<path d="M16.6858 35.0747C18.4431 35.0747 19.8677 33.6502 19.8677 31.8928C19.8677 30.1355 18.4431 28.7109 16.6858 28.7109C14.9285 28.7109 13.5039 30.1355 13.5039 31.8928C13.5039 33.6502 14.9285 35.0747 16.6858 35.0747Z" fill="url(#paint5_linear_216_4989)"/>
<path d="M16.6858 49.6568C18.4431 49.6568 19.8677 48.2322 19.8677 46.4749C19.8677 44.7176 18.4431 43.293 16.6858 43.293C14.9285 43.293 13.5039 44.7176 13.5039 46.4749C13.5039 48.2322 14.9285 49.6568 16.6858 49.6568Z" fill="url(#paint6_linear_216_4989)"/>
<path d="M23.0296 53.6627C24.2875 53.6627 25.3072 52.6429 25.3072 51.385C25.3072 50.1271 24.2875 49.1074 23.0296 49.1074C21.7717 49.1074 20.752 50.1271 20.752 51.385C20.752 52.6429 21.7717 53.6627 23.0296 53.6627Z" fill="url(#paint7_linear_216_4989)"/>
<path d="M39.8147 53.6627C41.0726 53.6627 42.0924 52.6429 42.0924 51.385C42.0924 50.1271 41.0726 49.1074 39.8147 49.1074C38.5568 49.1074 37.5371 50.1271 37.5371 51.385C37.5371 52.6429 38.5568 53.6627 39.8147 53.6627Z" fill="url(#paint8_linear_216_4989)"/>
<path d="M16.6858 19.3599C18.4431 19.3599 19.8677 17.9353 19.8677 16.178C19.8677 14.4207 18.4431 12.9961 16.6858 12.9961C14.9285 12.9961 13.5039 14.4207 13.5039 16.178C13.5039 17.9353 14.9285 19.3599 16.6858 19.3599Z" fill="url(#paint9_linear_216_4989)"/>
<path d="M23.4051 13.8922C24.8585 13.8922 26.0367 12.7139 26.0367 11.2605C26.0367 9.80713 24.8585 8.62891 23.4051 8.62891C21.9517 8.62891 20.7734 9.80713 20.7734 11.2605C20.7734 12.7139 21.9517 13.8922 23.4051 13.8922Z" fill="url(#paint10_linear_216_4989)"/>
<path d="M39.8562 13.8922C41.3096 13.8922 42.4879 12.7139 42.4879 11.2605C42.4879 9.80713 41.3096 8.62891 39.8562 8.62891C38.4028 8.62891 37.2246 9.80713 37.2246 11.2605C37.2246 12.7139 38.4028 13.8922 39.8562 13.8922Z" fill="url(#paint11_linear_216_4989)"/>
<path d="M10.8719 25.6109C12.3253 25.6109 13.5035 24.4327 13.5035 22.9793C13.5035 21.5259 12.3253 20.3477 10.8719 20.3477C9.41845 20.3477 8.24023 21.5259 8.24023 22.9793C8.24023 24.4327 9.41845 25.6109 10.8719 25.6109Z" fill="url(#paint12_linear_216_4989)"/>
<path d="M51.5398 25.6109C52.9932 25.6109 54.1715 24.4327 54.1715 22.9793C54.1715 21.5259 52.9932 20.3477 51.5398 20.3477C50.0864 20.3477 48.9082 21.5259 48.9082 22.9793C48.9082 24.4327 50.0864 25.6109 51.5398 25.6109Z" fill="url(#paint13_linear_216_4989)"/>
<path d="M10.9519 12.107C12.4053 12.107 13.5836 10.9288 13.5836 9.47538C13.5836 8.02197 12.4053 6.84375 10.9519 6.84375C9.49853 6.84375 8.32031 8.02197 8.32031 9.47538C8.32031 10.9288 9.49853 12.107 10.9519 12.107Z" fill="url(#paint14_linear_216_4989)"/>
<path d="M53.7215 12.107C55.1749 12.107 56.3531 10.9288 56.3531 9.47538C56.3531 8.02197 55.1749 6.84375 53.7215 6.84375C52.2681 6.84375 51.0898 8.02197 51.0898 9.47538C51.0898 10.9288 52.2681 12.107 53.7215 12.107Z" fill="url(#paint15_linear_216_4989)"/>
<path d="M10.9519 42.3863C12.4053 42.3863 13.5836 41.2081 13.5836 39.7547C13.5836 38.3013 12.4053 37.123 10.9519 37.123C9.49853 37.123 8.32031 38.3013 8.32031 39.7547C8.32031 41.2081 9.49853 42.3863 10.9519 42.3863Z" fill="url(#paint16_linear_216_4989)"/>
<path d="M51.5398 42.3863C52.9932 42.3863 54.1715 41.2081 54.1715 39.7547C54.1715 38.3013 52.9932 37.123 51.5398 37.123C50.0864 37.123 48.9082 38.3013 48.9082 39.7547C48.9082 41.2081 50.0864 42.3863 51.5398 42.3863Z" fill="url(#paint17_linear_216_4989)"/>
<path d="M9.5203 55.8765C10.9737 55.8765 12.1519 54.6983 12.1519 53.2449C12.1519 51.7915 10.9737 50.6133 9.5203 50.6133C8.06689 50.6133 6.88867 51.7915 6.88867 53.2449C6.88867 54.6983 8.06689 55.8765 9.5203 55.8765Z" fill="url(#paint18_linear_216_4989)"/>
<path d="M53.3191 55.8765C54.7725 55.8765 55.9508 54.6983 55.9508 53.2449C55.9508 51.7915 54.7725 50.6133 53.3191 50.6133C51.8657 50.6133 50.6875 51.7915 50.6875 53.2449C50.6875 54.6983 51.8657 55.8765 53.3191 55.8765Z" fill="url(#paint19_linear_216_4989)"/>
<path d="M5.6026 47.4806C6.40464 47.4806 7.05482 46.8304 7.05482 46.0284C7.05482 45.2263 6.40464 44.5762 5.6026 44.5762C4.80057 44.5762 4.15039 45.2263 4.15039 46.0284C4.15039 46.8304 4.80057 47.4806 5.6026 47.4806Z" fill="url(#paint20_linear_216_4989)"/>
<path d="M56.8819 47.4806C57.6839 47.4806 58.3341 46.8304 58.3341 46.0284C58.3341 45.2263 57.6839 44.5762 56.8819 44.5762C56.0799 44.5762 55.4297 45.2263 55.4297 46.0284C55.4297 46.8304 56.0799 47.4806 56.8819 47.4806Z" fill="url(#paint21_linear_216_4989)"/>
<path d="M1.45221 52.5607C2.25425 52.5607 2.90443 51.9105 2.90443 51.1085C2.90443 50.3064 2.25425 49.6562 1.45221 49.6562C0.650178 49.6562 0 50.3064 0 51.1085C0 51.9105 0.650178 52.5607 1.45221 52.5607Z" fill="url(#paint22_linear_216_4989)"/>
<path d="M61.2139 52.5607C62.016 52.5607 62.6661 51.9105 62.6661 51.1085C62.6661 50.3064 62.016 49.6562 61.2139 49.6562C60.4119 49.6562 59.7617 50.3064 59.7617 51.1085C59.7617 51.9105 60.4119 52.5607 61.2139 52.5607Z" fill="url(#paint23_linear_216_4989)"/>
<path d="M3.68464 60.4747C4.48667 60.4747 5.13685 59.8246 5.13685 59.0225C5.13685 58.2205 4.48667 57.5703 3.68464 57.5703C2.8826 57.5703 2.23242 58.2205 2.23242 59.0225C2.23242 59.8246 2.8826 60.4747 3.68464 60.4747Z" fill="url(#paint24_linear_216_4989)"/>
<path d="M59.2706 60.4747C60.0726 60.4747 60.7228 59.8246 60.7228 59.0225C60.7228 58.2205 60.0726 57.5703 59.2706 57.5703C58.4685 57.5703 57.8184 58.2205 57.8184 59.0225C57.8184 59.8246 58.4685 60.4747 59.2706 60.4747Z" fill="url(#paint25_linear_216_4989)"/>
<path d="M4.93659 4.72474C5.73862 4.72474 6.3888 4.07456 6.3888 3.27253C6.3888 2.47049 5.73862 1.82031 4.93659 1.82031C4.13455 1.82031 3.48438 2.47049 3.48438 3.27253C3.48438 4.07456 4.13455 4.72474 4.93659 4.72474Z" fill="url(#paint26_linear_216_4989)"/>
<path d="M58.8565 4.72474C59.6585 4.72474 60.3087 4.07456 60.3087 3.27253C60.3087 2.47049 59.6585 1.82031 58.8565 1.82031C58.0545 1.82031 57.4043 2.47049 57.4043 3.27253C57.4043 4.07456 58.0545 4.72474 58.8565 4.72474Z" fill="url(#paint27_linear_216_4989)"/>
<path d="M12.0518 3.51185C12.8539 3.51185 13.504 2.86167 13.504 2.05964C13.504 1.2576 12.8539 0.607422 12.0518 0.607422C11.2498 0.607422 10.5996 1.2576 10.5996 2.05964C10.5996 2.86167 11.2498 3.51185 12.0518 3.51185Z" fill="url(#paint28_linear_216_4989)"/>
<path d="M51.5401 3.51185C52.3421 3.51185 52.9923 2.86167 52.9923 2.05964C52.9923 1.2576 52.3421 0.607422 51.5401 0.607422C50.7381 0.607422 50.0879 1.2576 50.0879 2.05964C50.0879 2.86167 50.7381 3.51185 51.5401 3.51185Z" fill="url(#paint29_linear_216_4989)"/>
<path d="M17.1788 7.36536C17.9808 7.36536 18.631 6.71519 18.631 5.91315C18.631 5.11112 17.9808 4.46094 17.1788 4.46094C16.3767 4.46094 15.7266 5.11112 15.7266 5.91315C15.7266 6.71519 16.3767 7.36536 17.1788 7.36536Z" fill="url(#paint30_linear_216_4989)"/>
<path d="M46.337 7.36536C47.139 7.36536 47.7892 6.71519 47.7892 5.91315C47.7892 5.11112 47.139 4.46094 46.337 4.46094C45.5349 4.46094 44.8848 5.11112 44.8848 5.91315C44.8848 6.71519 45.5349 7.36536 46.337 7.36536Z" fill="url(#paint31_linear_216_4989)"/>
<path d="M1.45221 12.924C2.25425 12.924 2.90443 12.2738 2.90443 11.4717C2.90443 10.6697 2.25425 10.0195 1.45221 10.0195C0.650178 10.0195 0 10.6697 0 11.4717C0 12.2738 0.650178 12.924 1.45221 12.924Z" fill="url(#paint32_linear_216_4989)"/>
<path d="M61.7608 12.924C62.5628 12.924 63.213 12.2738 63.213 11.4717C63.213 10.6697 62.5628 10.0195 61.7608 10.0195C60.9588 10.0195 60.3086 10.6697 60.3086 11.4717C60.3086 12.2738 60.9588 12.924 61.7608 12.924Z" fill="url(#paint33_linear_216_4989)"/>
<path d="M5.6026 17.9318C6.40464 17.9318 7.05482 17.2816 7.05482 16.4796C7.05482 15.6775 6.40464 15.0273 5.6026 15.0273C4.80057 15.0273 4.15039 15.6775 4.15039 16.4796C4.15039 17.2816 4.80057 17.9318 5.6026 17.9318Z" fill="url(#paint34_linear_216_4989)"/>
<path d="M57.4034 17.9318C58.2054 17.9318 58.8556 17.2816 58.8556 16.4796C58.8556 15.6775 58.2054 15.0273 57.4034 15.0273C56.6013 15.0273 55.9512 15.6775 55.9512 16.4796C55.9512 17.2816 56.6013 17.9318 57.4034 17.9318Z" fill="url(#paint35_linear_216_4989)"/>
<path d="M10.9737 62.5665C11.7757 62.5665 12.4259 61.9164 12.4259 61.1143C12.4259 60.3123 11.7757 59.6621 10.9737 59.6621C10.1717 59.6621 9.52148 60.3123 9.52148 61.1143C9.52148 61.9164 10.1717 62.5665 10.9737 62.5665Z" fill="url(#paint36_linear_216_4989)"/>
<path d="M50.6885 62.5665C51.4906 62.5665 52.1408 61.9164 52.1408 61.1143C52.1408 60.3123 51.4906 59.6621 50.6885 59.6621C49.8865 59.6621 49.2363 60.3123 49.2363 61.1143C49.2363 61.9164 49.8865 62.5665 50.6885 62.5665Z" fill="url(#paint37_linear_216_4989)"/>
<path d="M16.6866 58.3048C17.4886 58.3048 18.1388 57.6546 18.1388 56.8526C18.1388 56.0506 17.4886 55.4004 16.6866 55.4004C15.8846 55.4004 15.2344 56.0506 15.2344 56.8526C15.2344 57.6546 15.8846 58.3048 16.6866 58.3048Z" fill="url(#paint38_linear_216_4989)"/>
<path d="M45.5264 58.3048C46.3285 58.3048 46.9786 57.6546 46.9786 56.8526C46.9786 56.0506 46.3285 55.4004 45.5264 55.4004C44.7244 55.4004 44.0742 56.0506 44.0742 56.8526C44.0742 57.6546 44.7244 58.3048 45.5264 58.3048Z" fill="url(#paint39_linear_216_4989)"/>
<path d="M46.3381 35.0747C48.0955 35.0747 49.5201 33.6502 49.5201 31.8928C49.5201 30.1355 48.0955 28.7109 46.3381 28.7109C44.5808 28.7109 43.1562 30.1355 43.1562 31.8928C43.1562 33.6502 44.5808 35.0747 46.3381 35.0747Z" fill="url(#paint40_linear_216_4989)"/>
<path d="M46.3381 49.6568C48.0955 49.6568 49.5201 48.2322 49.5201 46.4749C49.5201 44.7176 48.0955 43.293 46.3381 43.293C44.5808 43.293 43.1562 44.7176 43.1562 46.4749C43.1562 48.2322 44.5808 49.6568 46.3381 49.6568Z" fill="url(#paint41_linear_216_4989)"/>
<path d="M46.3381 19.3599C48.0955 19.3599 49.5201 17.9353 49.5201 16.178C49.5201 14.4207 48.0955 12.9961 46.3381 12.9961C44.5808 12.9961 43.1562 14.4207 43.1562 16.178C43.1562 17.9353 44.5808 19.3599 46.3381 19.3599Z" fill="url(#paint42_linear_216_4989)"/>
<path d="M31.594 21.1138C33.3513 21.1138 34.7759 19.6892 34.7759 17.9319C34.7759 16.1746 33.3513 14.75 31.594 14.75C29.8367 14.75 28.4121 16.1746 28.4121 17.9319C28.4121 19.6892 29.8367 21.1138 31.594 21.1138Z" fill="url(#paint43_linear_216_4989)"/>
<path d="M31.594 48.7486C33.3513 48.7486 34.7759 47.324 34.7759 45.5667C34.7759 43.8093 33.3513 42.3848 31.594 42.3848C29.8367 42.3848 28.4121 43.8093 28.4121 45.5667C28.4121 47.324 29.8367 48.7486 31.594 48.7486Z" fill="url(#paint44_linear_216_4989)"/>
<path d="M84.0469 45.25V18.3569H89.1182V45.25H84.0469ZM100.676 45.25V22.9671H92.8385V18.3569H113.585V22.9671H105.747V45.25H100.676ZM117.313 45.25V18.3569H128.993C130.683 18.3569 132.156 18.6514 133.411 19.2405C134.666 19.8296 135.639 20.662 136.331 21.7377C137.022 22.8134 137.368 24.0813 137.368 25.5412V26.0022C137.368 27.6158 136.984 28.922 136.215 29.9209C135.447 30.9198 134.499 31.6498 133.372 32.1108V32.8023C134.397 32.8535 135.191 33.2121 135.754 33.878C136.318 34.5184 136.599 35.3764 136.599 36.4521V45.25H131.528V37.1821C131.528 36.5674 131.362 36.0679 131.029 35.6837C130.721 35.2995 130.196 35.1074 129.454 35.1074H122.385V45.25H117.313ZM122.385 30.4972H128.455C129.658 30.4972 130.593 30.177 131.259 29.5367C131.951 28.8708 132.297 28 132.297 26.9242V26.5401C132.297 25.4643 131.964 24.6063 131.298 23.966C130.632 23.3001 129.684 22.9671 128.455 22.9671H122.385V30.4972ZM152.313 45.7879C148.932 45.7879 146.243 44.8658 144.245 43.0217C142.247 41.152 141.248 38.4883 141.248 35.0306V28.5762C141.248 25.1186 142.247 22.4677 144.245 20.6236C146.243 18.7538 148.932 17.819 152.313 17.819C155.694 17.819 158.383 18.7538 160.381 20.6236C162.378 22.4677 163.377 25.1186 163.377 28.5762V35.0306C163.377 38.4883 162.378 41.152 160.381 43.0217C158.383 44.8658 155.694 45.7879 152.313 45.7879ZM152.313 41.2544C154.208 41.2544 155.681 40.7038 156.731 39.6024C157.781 38.5011 158.306 37.0284 158.306 35.1843V28.4226C158.306 26.5785 157.781 25.1058 156.731 24.0044C155.681 22.9031 154.208 22.3524 152.313 22.3524C150.443 22.3524 148.97 22.9031 147.895 24.0044C146.844 25.1058 146.319 26.5785 146.319 28.4226V35.1843C146.319 37.0284 146.844 38.5011 147.895 39.6024C148.97 40.7038 150.443 41.2544 152.313 41.2544ZM168.101 45.25V18.3569H177.744L183.084 41.7923H183.776V18.3569H188.77V45.25H179.127L173.787 21.8145H173.095V45.25H168.101ZM194.113 45.25V18.3569H199.185V45.25H194.113ZM202.828 45.25L210.704 31.6882L202.905 18.3569H208.668L214.008 28.0768H214.699L220.04 18.3569H225.803L218.004 31.6882L225.879 45.25H220.117L214.699 35.2995H214.008L208.591 45.25H202.828Z" fill="white"/>
<path d="M231.125 21.6128V18.6501H230.066V18.0469H232.9V18.6501H231.845V21.6128H231.125Z" fill="white"/>
<path d="M233.633 21.6128V18.0469H234.71L235.357 20.4793L235.997 18.0469H237.077V21.6128H236.408V18.8058L235.7 21.6128H235.007L234.302 18.8058V21.6128H233.633Z" fill="white"/>
<defs>
<linearGradient id="paint0_linear_216_4989" x1="27.1101" y1="27.8626" x2="35.6298" y2="37.141" gradientUnits="userSpaceOnUse">
<stop stop-color="#7804B3"/>
<stop offset="1" stop-color="#ED4C00"/>
</linearGradient>
<linearGradient id="paint1_linear_216_4989" x1="34.8151" y1="35.9153" x2="43.3348" y2="45.1938" gradientUnits="userSpaceOnUse">
<stop stop-color="#7804B3"/>
<stop offset="1" stop-color="#ED4C00"/>
</linearGradient>
<linearGradient id="paint2_linear_216_4989" x1="18.9186" y1="35.9153" x2="27.4383" y2="45.1938" gradientUnits="userSpaceOnUse">
<stop stop-color="#7804B3"/>
<stop offset="1" stop-color="#ED4C00"/>
</linearGradient>
<linearGradient id="paint3_linear_216_4989" x1="34.8151" y1="19.6048" x2="43.3348" y2="28.8832" gradientUnits="userSpaceOnUse">
<stop stop-color="#7804B3"/>
<stop offset="1" stop-color="#ED4C00"/>
</linearGradient>
<linearGradient id="paint4_linear_216_4989" x1="18.9186" y1="19.6048" x2="27.4383" y2="28.8832" gradientUnits="userSpaceOnUse">
<stop stop-color="#7804B3"/>
<stop offset="1" stop-color="#ED4C00"/>
</linearGradient>
<linearGradient id="paint5_linear_216_4989" x1="13.6958" y1="29.3016" x2="19.3752" y2="35.4868" gradientUnits="userSpaceOnUse">
<stop stop-color="#7804B3"/>
<stop offset="1" stop-color="#ED4C00"/>
</linearGradient>
<linearGradient id="paint6_linear_216_4989" x1="13.6958" y1="43.8836" x2="19.3752" y2="50.0689" gradientUnits="userSpaceOnUse">
<stop stop-color="#7804B3"/>
<stop offset="1" stop-color="#ED4C00"/>
</linearGradient>
<linearGradient id="paint7_linear_216_4989" x1="20.8893" y1="49.5302" x2="24.9547" y2="53.9577" gradientUnits="userSpaceOnUse">
<stop stop-color="#7804B3"/>
<stop offset="1" stop-color="#ED4C00"/>
</linearGradient>
<linearGradient id="paint8_linear_216_4989" x1="37.6744" y1="49.5302" x2="41.7398" y2="53.9577" gradientUnits="userSpaceOnUse">
<stop stop-color="#7804B3"/>
<stop offset="1" stop-color="#ED4C00"/>
</linearGradient>
<linearGradient id="paint9_linear_216_4989" x1="13.6958" y1="13.5867" x2="19.3752" y2="19.772" gradientUnits="userSpaceOnUse">
<stop stop-color="#7804B3"/>
<stop offset="1" stop-color="#ED4C00"/>
</linearGradient>
<linearGradient id="paint10_linear_216_4989" x1="20.9321" y1="9.11741" x2="25.6294" y2="14.233" gradientUnits="userSpaceOnUse">
<stop stop-color="#7804B3"/>
<stop offset="1" stop-color="#ED4C00"/>
</linearGradient>
<linearGradient id="paint11_linear_216_4989" x1="37.3833" y1="9.11741" x2="42.0805" y2="14.233" gradientUnits="userSpaceOnUse">
<stop stop-color="#7804B3"/>
<stop offset="1" stop-color="#ED4C00"/>
</linearGradient>
<linearGradient id="paint12_linear_216_4989" x1="8.3989" y1="20.8362" x2="13.0962" y2="25.9517" gradientUnits="userSpaceOnUse">
<stop stop-color="#7804B3"/>
<stop offset="1" stop-color="#ED4C00"/>
</linearGradient>
<linearGradient id="paint13_linear_216_4989" x1="49.0669" y1="20.8362" x2="53.7641" y2="25.9517" gradientUnits="userSpaceOnUse">
<stop stop-color="#7804B3"/>
<stop offset="1" stop-color="#ED4C00"/>
</linearGradient>
<linearGradient id="paint14_linear_216_4989" x1="8.47898" y1="7.33225" x2="13.1762" y2="12.4478" gradientUnits="userSpaceOnUse">
<stop stop-color="#7804B3"/>
<stop offset="1" stop-color="#ED4C00"/>
</linearGradient>
<linearGradient id="paint15_linear_216_4989" x1="51.2485" y1="7.33225" x2="55.9458" y2="12.4478" gradientUnits="userSpaceOnUse">
<stop stop-color="#7804B3"/>
<stop offset="1" stop-color="#ED4C00"/>
</linearGradient>
<linearGradient id="paint16_linear_216_4989" x1="8.47898" y1="37.6116" x2="13.1762" y2="42.7271" gradientUnits="userSpaceOnUse">
<stop stop-color="#7804B3"/>
<stop offset="1" stop-color="#ED4C00"/>
</linearGradient>
<linearGradient id="paint17_linear_216_4989" x1="49.0669" y1="37.6116" x2="53.7641" y2="42.7271" gradientUnits="userSpaceOnUse">
<stop stop-color="#7804B3"/>
<stop offset="1" stop-color="#ED4C00"/>
</linearGradient>
<linearGradient id="paint18_linear_216_4989" x1="7.04734" y1="51.1018" x2="11.7446" y2="56.2174" gradientUnits="userSpaceOnUse">
<stop stop-color="#7804B3"/>
<stop offset="1" stop-color="#ED4C00"/>
</linearGradient>
<linearGradient id="paint19_linear_216_4989" x1="50.8462" y1="51.1018" x2="55.5434" y2="56.2174" gradientUnits="userSpaceOnUse">
<stop stop-color="#7804B3"/>
<stop offset="1" stop-color="#ED4C00"/>
</linearGradient>
<linearGradient id="paint20_linear_216_4989" x1="4.23795" y1="44.8457" x2="6.83004" y2="47.6687" gradientUnits="userSpaceOnUse">
<stop stop-color="#7804B3"/>
<stop offset="1" stop-color="#ED4C00"/>
</linearGradient>
<linearGradient id="paint21_linear_216_4989" x1="55.5172" y1="44.8457" x2="58.1093" y2="47.6687" gradientUnits="userSpaceOnUse">
<stop stop-color="#7804B3"/>
<stop offset="1" stop-color="#ED4C00"/>
</linearGradient>
<linearGradient id="paint22_linear_216_4989" x1="0.0875584" y1="49.9258" x2="2.67965" y2="52.7488" gradientUnits="userSpaceOnUse">
<stop stop-color="#7804B3"/>
<stop offset="1" stop-color="#ED4C00"/>
</linearGradient>
<linearGradient id="paint23_linear_216_4989" x1="59.8493" y1="49.9258" x2="62.4414" y2="52.7488" gradientUnits="userSpaceOnUse">
<stop stop-color="#7804B3"/>
<stop offset="1" stop-color="#ED4C00"/>
</linearGradient>
<linearGradient id="paint24_linear_216_4989" x1="2.31998" y1="57.8399" x2="4.91207" y2="60.6628" gradientUnits="userSpaceOnUse">
<stop stop-color="#7804B3"/>
<stop offset="1" stop-color="#ED4C00"/>
</linearGradient>
<linearGradient id="paint25_linear_216_4989" x1="57.9059" y1="57.8399" x2="60.498" y2="60.6628" gradientUnits="userSpaceOnUse">
<stop stop-color="#7804B3"/>
<stop offset="1" stop-color="#ED4C00"/>
</linearGradient>
<linearGradient id="paint26_linear_216_4989" x1="3.57193" y1="2.08988" x2="6.16402" y2="4.91282" gradientUnits="userSpaceOnUse">
<stop stop-color="#7804B3"/>
<stop offset="1" stop-color="#ED4C00"/>
</linearGradient>
<linearGradient id="paint27_linear_216_4989" x1="57.4919" y1="2.08988" x2="60.0839" y2="4.91282" gradientUnits="userSpaceOnUse">
<stop stop-color="#7804B3"/>
<stop offset="1" stop-color="#ED4C00"/>
</linearGradient>
<linearGradient id="paint28_linear_216_4989" x1="10.6872" y1="0.876993" x2="13.2793" y2="3.69993" gradientUnits="userSpaceOnUse">
<stop stop-color="#7804B3"/>
<stop offset="1" stop-color="#ED4C00"/>
</linearGradient>
<linearGradient id="paint29_linear_216_4989" x1="50.1754" y1="0.876993" x2="52.7675" y2="3.69993" gradientUnits="userSpaceOnUse">
<stop stop-color="#7804B3"/>
<stop offset="1" stop-color="#ED4C00"/>
</linearGradient>
<linearGradient id="paint30_linear_216_4989" x1="15.8141" y1="4.73051" x2="18.4062" y2="7.55344" gradientUnits="userSpaceOnUse">
<stop stop-color="#7804B3"/>
<stop offset="1" stop-color="#ED4C00"/>
</linearGradient>
<linearGradient id="paint31_linear_216_4989" x1="44.9723" y1="4.73051" x2="47.5644" y2="7.55344" gradientUnits="userSpaceOnUse">
<stop stop-color="#7804B3"/>
<stop offset="1" stop-color="#ED4C00"/>
</linearGradient>
<linearGradient id="paint32_linear_216_4989" x1="0.0875584" y1="10.2891" x2="2.67965" y2="13.112" gradientUnits="userSpaceOnUse">
<stop stop-color="#7804B3"/>
<stop offset="1" stop-color="#ED4C00"/>
</linearGradient>
<linearGradient id="paint33_linear_216_4989" x1="60.3962" y1="10.2891" x2="62.9882" y2="13.112" gradientUnits="userSpaceOnUse">
<stop stop-color="#7804B3"/>
<stop offset="1" stop-color="#ED4C00"/>
</linearGradient>
<linearGradient id="paint34_linear_216_4989" x1="4.23795" y1="15.2969" x2="6.83004" y2="18.1198" gradientUnits="userSpaceOnUse">
<stop stop-color="#7804B3"/>
<stop offset="1" stop-color="#ED4C00"/>
</linearGradient>
<linearGradient id="paint35_linear_216_4989" x1="56.0387" y1="15.2969" x2="58.6308" y2="18.1198" gradientUnits="userSpaceOnUse">
<stop stop-color="#7804B3"/>
<stop offset="1" stop-color="#ED4C00"/>
</linearGradient>
<linearGradient id="paint36_linear_216_4989" x1="9.60904" y1="59.9317" x2="12.2011" y2="62.7546" gradientUnits="userSpaceOnUse">
<stop stop-color="#7804B3"/>
<stop offset="1" stop-color="#ED4C00"/>
</linearGradient>
<linearGradient id="paint37_linear_216_4989" x1="49.3239" y1="59.9317" x2="51.916" y2="62.7546" gradientUnits="userSpaceOnUse">
<stop stop-color="#7804B3"/>
<stop offset="1" stop-color="#ED4C00"/>
</linearGradient>
<linearGradient id="paint38_linear_216_4989" x1="15.3219" y1="55.67" x2="17.914" y2="58.4929" gradientUnits="userSpaceOnUse">
<stop stop-color="#7804B3"/>
<stop offset="1" stop-color="#ED4C00"/>
</linearGradient>
<linearGradient id="paint39_linear_216_4989" x1="44.1618" y1="55.67" x2="46.7539" y2="58.4929" gradientUnits="userSpaceOnUse">
<stop stop-color="#7804B3"/>
<stop offset="1" stop-color="#ED4C00"/>
</linearGradient>
<linearGradient id="paint40_linear_216_4989" x1="43.3481" y1="29.3016" x2="49.0275" y2="35.4868" gradientUnits="userSpaceOnUse">
<stop stop-color="#7804B3"/>
<stop offset="1" stop-color="#ED4C00"/>
</linearGradient>
<linearGradient id="paint41_linear_216_4989" x1="43.3481" y1="43.8836" x2="49.0275" y2="50.0689" gradientUnits="userSpaceOnUse">
<stop stop-color="#7804B3"/>
<stop offset="1" stop-color="#ED4C00"/>
</linearGradient>
<linearGradient id="paint42_linear_216_4989" x1="43.3481" y1="13.5867" x2="49.0275" y2="19.772" gradientUnits="userSpaceOnUse">
<stop stop-color="#7804B3"/>
<stop offset="1" stop-color="#ED4C00"/>
</linearGradient>
<linearGradient id="paint43_linear_216_4989" x1="28.604" y1="15.3406" x2="34.2834" y2="21.5259" gradientUnits="userSpaceOnUse">
<stop stop-color="#7804B3"/>
<stop offset="1" stop-color="#ED4C00"/>
</linearGradient>
<linearGradient id="paint44_linear_216_4989" x1="28.604" y1="42.9754" x2="34.2834" y2="49.1607" gradientUnits="userSpaceOnUse">
<stop stop-color="#7804B3"/>
<stop offset="1" stop-color="#ED4C00"/>
</linearGradient>
</defs>
</svg>
