<?xml version="1.0" encoding="UTF-8"?>
<svg version="1.1" xmlns="http://www.w3.org/2000/svg" width="250" height="85">
<path d="M0 0 C4.29 0 8.58 0 13 0 C15.50501569 6.26253923 16.64133412 12.39194321 18 19 C18.33 12.73 18.66 6.46 19 0 C21.64 0 24.28 0 27 0 C27 11.22 27 22.44 27 34 C22.71 34 18.42 34 14 34 C11.89684094 27.69052283 10.45586393 21.48521207 9 15 C8.67 21.27 8.34 27.54 8 34 C5.36 34 2.72 34 0 34 C0 22.78 0 11.56 0 0 Z M19 24 C20 27 20 27 20 27 Z " fill="#E0E0E0" transform="translate(156,29)"/>
<path d="M0 0 C3.01125 -0.0825 6.0225 -0.165 9.125 -0.25 C10.06230957 -0.28641602 10.99961914 -0.32283203 11.96533203 -0.36035156 C17.4352921 -0.43258533 20.77769341 0.16153947 25 4 C26.24494486 6.63949683 26.26583421 9.10905293 26 12 C24.5625 15.5 24.5625 15.5 23 18 C23.66 18.66 24.32 19.32 25 20 C25.1953125 23.2578125 25.1953125 23.2578125 25.125 27.125 C25.10695313 28.40632813 25.08890625 29.68765625 25.0703125 31.0078125 C25.04710938 31.99523437 25.02390625 32.98265625 25 34 C22.36 34 19.72 34 17 34 C17 30.04 17 26.08 17 22 C13.7 22 10.4 22 7 22 C7 25.96 7 29.92 7 34 C4.69 34 2.38 34 0 34 C0 22.78 0 11.56 0 0 Z M7 7 C7 9.64 7 12.28 7 15 C8.8871875 15.061875 8.8871875 15.061875 10.8125 15.125 C11.52019531 15.14820313 12.22789063 15.17140625 12.95703125 15.1953125 C15.31359719 15.13254462 15.31359719 15.13254462 18 13 C18.33343551 10.45792029 18.33343551 10.45792029 18 8 C16.96593327 6.74050951 16.96593327 6.74050951 14.71484375 6.90234375 C13.79832031 6.91394531 12.88179687 6.92554688 11.9375 6.9375 C11.01839844 6.94652344 10.09929687 6.95554687 9.15234375 6.96484375 C8.44207031 6.97644531 7.73179688 6.98804688 7 7 Z " fill="#EEEEEE" transform="translate(94,29)"/>
<path d="M0 0 C3.17248904 1.78913626 5.15276881 3.52468455 6.3515625 7.11328125 C7.70691675 15.01951437 7.90455499 22.42226602 3.75 29.4375 C0.14224897 33.48255418 -3.4499788 34.28152858 -8.6796875 34.59375 C-12.89366131 34.33758138 -15.98774373 33.11301953 -19.25 30.4375 C-23.84745458 23.82865904 -23.17087377 14.80023547 -21.8515625 7.1171875 C-20.65455718 3.52617153 -18.6739081 1.78993655 -15.5 0 C-9.9987994 -2.31893675 -5.5012006 -2.31893675 0 0 Z M-14.25 8.4375 C-14.65738428 11.26522621 -14.81016044 13.61998606 -14.75 16.4375 C-14.76546875 17.16195312 -14.7809375 17.88640625 -14.796875 18.6328125 C-14.77232988 21.958676 -14.70986663 23.92487811 -12.4453125 26.44921875 C-9.13530523 27.93931099 -6.70655908 27.26963459 -3.25 26.4375 C-0.32019189 23.50769189 -0.88189368 20.41905524 -0.875 16.5 C-0.85050781 15.77103516 -0.82601562 15.04207031 -0.80078125 14.29101562 C-0.76050389 9.94269703 -0.76050389 9.94269703 -3.1171875 6.45703125 C-7.55412437 4.33607791 -10.8749878 4.87967464 -14.25 8.4375 Z " fill="#E8E8E8" transform="translate(145.25,29.5625)"/>
<path d="M0 0 C5.17662465 -0.70191521 5.17662465 -0.70191521 8 0 C9.74229499 1.89361093 10.82080625 3.76926533 11.9921875 6.0546875 C12.95865146 8.16037088 12.95865146 8.16037088 15 10 C15.3403125 9.278125 15.680625 8.55625 16.03125 7.8125 C17.51837413 4.96481549 18.93330262 2.46447177 21 0 C24.06058568 -0.9324365 25.77170532 -0.55660253 29 0 C27.22920767 4.79155573 24.70694715 8.93727897 22.046875 13.28125 C20.72655796 15.92875587 20.72655796 15.92875587 21.6328125 18.48828125 C22.08398438 19.31714844 22.53515625 20.14601563 23 21 C23.49757812 21.93199219 23.99515625 22.86398438 24.5078125 23.82421875 C25.59054254 25.74122628 26.67388109 27.65789025 27.7578125 29.57421875 C29 32 29 32 29 34 C26.36 34 23.72 34 21 34 C19.02 30.37 17.04 26.74 15 23 C14.01 24.815 13.02 26.63 12 28.5 C8.69858821 33.77280696 8.69858821 33.77280696 5.75390625 34.73046875 C3.5625 34.6875 3.5625 34.6875 0 34 C1.78067319 29.21389792 4.25974979 25.00402904 6.85546875 20.62109375 C8.1554058 18.17672122 8.1554058 18.17672122 7.8984375 16.04296875 C6.63536064 13.1708418 5.06730049 10.55511637 3.4375 7.875 C0 2.21730382 0 2.21730382 0 0 Z " fill="#E7E7E7" transform="translate(199,29)"/>
<path d="M0 0 C2.64 0 5.28 0 8 0 C8 11.22 8 22.44 8 34 C5.36 34 2.72 34 0 34 C0 22.78 0 11.56 0 0 Z " fill="#E9E9E9" transform="translate(188,29)"/>
<path d="M0 0 C3.125 0.375 3.125 0.375 6 1 C6.33 2.65 6.66 4.3 7 6 C7.66 5.67 8.32 5.34 9 5 C14.25465839 4.55279503 14.25465839 4.55279503 16.875 6.125 C18.55468045 8.92446741 18.45742277 10.79804064 18 14 C16.375 16.4375 16.375 16.4375 14 18 C10.9375 18 10.9375 18 8 17 C5.56714867 14.56714867 4.60070908 12.36397083 4 9 C3.195625 8.855625 2.39125 8.71125 1.5625 8.5625 C-1 8 -1 8 -2 7 C-2.1875 4.5625 -2.1875 4.5625 -2 2 C-1.34 1.34 -0.68 0.68 0 0 Z " fill="#E1E1E1" transform="translate(40,21)"/>
<path d="M0 0 C2.4375 1.625 2.4375 1.625 4 4 C4 7.51359068 3.6312066 9.27528132 1.3125 11.9375 C-1.86221916 13.39615475 -3.69878201 13.00471852 -7 12 C-9.31282587 8.53076119 -9.42478586 7.07794425 -9 3 C-6.79244709 -0.67925486 -4.01747809 -0.57392544 0 0 Z " fill="#E3E3E3" transform="translate(35,26)"/>
<path d="M0 0 C1.875 1.125 1.875 1.125 3 3 C3.54400387 6.65259739 3.43774093 8.3433886 1.375 11.4375 C-1 13 -1 13 -4.0625 13 C-7 12 -7 12 -8.9375 10.25 C-10 8 -10 8 -9.875 5.4375 C-7.97946103 0.15707002 -5.52477171 -0.69059646 0 0 Z " fill="#E5E5E5" transform="translate(55,46)"/>
<path d="M0 0 C2.4375 1.625 2.4375 1.625 4 4 C4 7.51359068 3.6312066 9.27528132 1.3125 11.9375 C-1.86221916 13.39615475 -3.69878201 13.00471852 -7 12 C-9.31282587 8.53076119 -9.42478586 7.07794425 -9 3 C-6.79244709 -0.67925486 -4.01747809 -0.57392544 0 0 Z " fill="#E7E7E7" transform="translate(35,46)"/>
<path d="M0 0 C2.72578551 1.98908673 3.81831444 3.19250862 4.5625 6.5 C4 9 4 9 1.875 11.375 C-1 13 -1 13 -4.1875 12.9375 C-7 12 -7 12 -9 9 C-9.375 6 -9.375 6 -9 3 C-6.31164707 0.01294119 -3.93697301 -0.68897028 0 0 Z " fill="#E7E7E7" transform="translate(45,36)"/>
<path d="M0 0 C2.5 0.25 2.5 0.25 4.5 2.25 C4.125 5.375 4.125 5.375 3.5 8.25 C1.1875 8.875 1.1875 8.875 -1.5 9.25 C-2.49 8.59 -3.48 7.93 -4.5 7.25 C-4.8125 4.75 -4.8125 4.75 -4.5 2.25 C-2.5 0.25 -2.5 0.25 0 0 Z " fill="#D9D9D9" transform="translate(60.5,18.75)"/>
<path d="M0 0 C1.2375 0.1546875 1.2375 0.1546875 2.5 0.3125 C4.5 3.3125 4.5 3.3125 4.125 6 C3.91875 6.763125 3.7125 7.52625 3.5 8.3125 C1.1875 8.9375 1.1875 8.9375 -1.5 9.3125 C-2.49 8.6525 -3.48 7.9925 -4.5 7.3125 C-4.8125 4.8125 -4.8125 4.8125 -4.5 2.3125 C-2.5 0.3125 -2.5 0.3125 0 0 Z " fill="#DADADA" transform="translate(42.5,54.6875)"/>
<path d="M0 0 C0.6875 1.75 0.6875 1.75 1 4 C-0.4375 6.25 -0.4375 6.25 -2 8 C-4.375 7.75 -4.375 7.75 -7 7 C-8.375 5.125 -8.375 5.125 -9 3 C-8.67 2.01 -8.34 1.02 -8 0 C-5.13822943 -1.43088528 -3.06624227 -0.59991697 0 0 Z " fill="#D3D3D3" transform="translate(28,20)"/>
<path d="M0 0 C3.125 0.375 3.125 0.375 6 1 C6.6875 3.3125 6.6875 3.3125 7 6 C5.875 7.875 5.875 7.875 4 9 C-0.42105263 8.57894737 -0.42105263 8.57894737 -2 7 C-2.1875 4.5625 -2.1875 4.5625 -2 2 C-1.34 1.34 -0.68 0.68 0 0 Z " fill="#E1E1E1" transform="translate(58,56)"/>
<path d="M0 0 C2.375 0.1875 2.375 0.1875 5 1 C6.3125 3.5625 6.3125 3.5625 7 6 C5.8125 7.5625 5.8125 7.5625 4 9 C1.4375 8.9375 1.4375 8.9375 -1 8 C-2.3125 5.9375 -2.3125 5.9375 -3 4 C-2.01 2.68 -1.02 1.36 0 0 Z " fill="#E3E3E3" transform="translate(22,38)"/>
<path d="M0 0 C0.763125 0.20625 1.52625 0.4125 2.3125 0.625 C3 2.9375 3 2.9375 3.3125 5.625 C2.1875 7.5 2.1875 7.5 0.3125 8.625 C-4.10855263 8.20394737 -4.10855263 8.20394737 -5.6875 6.625 C-5.9375 4.1875 -5.9375 4.1875 -5.6875 1.625 C-2.6875 -0.375 -2.6875 -0.375 0 0 Z " fill="#DBDBDB" transform="translate(61.6875,38.375)"/>
<path d="M0 0 C2.375 0.25 2.375 0.25 5 1 C6.3125 3.0625 6.3125 3.0625 7 5 C6.01 6.32 5.02 7.64 4 9 C1.625 8.75 1.625 8.75 -1 8 C-2.3125 5.9375 -2.3125 5.9375 -3 4 C-2.01 2.68 -1.02 1.36 0 0 Z " fill="#DADADA" transform="translate(22,56)"/>
<path d="M0 0 C1.67542976 0.28604898 3.34385343 0.61781233 5 1 C5.6875 2.8125 5.6875 2.8125 6 5 C4.5625 6.75 4.5625 6.75 3 8 C0.525 7.01 0.525 7.01 -2 6 C-1.125 1.125 -1.125 1.125 0 0 Z " fill="#D0D0D0" transform="translate(67,65)"/>
<path d="M0 0 C0.598125 0.20625 1.19625 0.4125 1.8125 0.625 C2.4375 3 2.4375 3 2.8125 5.625 C2.1525 6.285 1.4925 6.945 0.8125 7.625 C-1.8125 7.25 -1.8125 7.25 -4.1875 6.625 C-4.5175 4.975 -4.8475 3.325 -5.1875 1.625 C-2.1875 -0.375 -2.1875 -0.375 0 0 Z " fill="#CCCCCC" transform="translate(18.1875,11.375)"/>
<path d="M0 0 C1.67542976 0.28604898 3.34385343 0.61781233 5 1 C5.33 2.65 5.66 4.3 6 6 C4.35 6.66 2.7 7.32 1 8 C-0.5625 6.75 -0.5625 6.75 -2 5 C-1.74853421 2.86254078 -1.54074221 1.54074221 0 0 Z " fill="#CCCCCC" transform="translate(13,65)"/>
<path d="M0 0 C0.598125 0.226875 1.19625 0.45375 1.8125 0.6875 C2.4375 3.0625 2.4375 3.0625 2.8125 5.6875 C2.1525 6.3475 1.4925 7.0075 0.8125 7.6875 C-1.8125 7.3125 -1.8125 7.3125 -4.1875 6.6875 C-4.875 4.875 -4.875 4.875 -5.1875 2.6875 C-3.58493056 0.24147296 -2.95482043 -0.4221172 0 0 Z " fill="#CECECE" transform="translate(18.1875,48.3125)"/>
<path d="M0 0 C3.3 0 6.6 0 10 0 C10 1.98 10 3.96 10 6 C7.36 6 4.72 6 2 6 C1.34 4.02 0.68 2.04 0 0 Z " fill="#B7B7B7" transform="translate(232,28)"/>
<path d="M0 0 C1.9375 0.8125 1.9375 0.8125 4 2 C4.33 2.99 4.66 3.98 5 5 C4.01 6.485 4.01 6.485 3 8 C1.35 7.67 -0.3 7.34 -2 7 C-2.33 5.35 -2.66 3.7 -3 2 C-2.01 1.34 -1.02 0.68 0 0 Z " fill="#D1D1D1" transform="translate(66,48)"/>
<path d="M0 0 C1.67542976 0.28604898 3.34385343 0.61781233 5 1 C5.33 2.32 5.66 3.64 6 5 C3.525 6.485 3.525 6.485 1 8 C0.01 7.34 -0.98 6.68 -2 6 C-1.125 1.125 -1.125 1.125 0 0 Z " fill="#D4D4D4" transform="translate(65,28)"/>
<path d="M0 0 C1.67542976 0.28604898 3.34385343 0.61781233 5 1 C5.33 2.32 5.66 3.64 6 5 C3.525 6.485 3.525 6.485 1 8 C-0.5625 6.75 -0.5625 6.75 -2 5 C-1.74853421 2.86254078 -1.54074221 1.54074221 0 0 Z " fill="#DFDFDF" transform="translate(15,28)"/>
<path d="M0 0 C1.32 0.66 2.64 1.32 4 2 C4.042721 3.66611905 4.04063832 5.33382885 4 7 C3 8 3 8 0.5 8.125 C-2 8 -2 8 -3 7 C-3.25 4.5625 -3.25 4.5625 -3 2 C-2.01 1.34 -1.02 0.68 0 0 Z " fill="#D1D1D1" transform="translate(52,13)"/>
<path d="M0 0 C1.32 0.66 2.64 1.32 4 2 C3.67 3.65 3.34 5.3 3 7 C1.35 7.33 -0.3 7.66 -2 8 C-2.66 6.35 -3.32 4.7 -4 3 C-2.68 2.01 -1.36 1.02 0 0 Z " fill="#D3D3D3" transform="translate(32,13)"/>
<path d="M0 0 C3.53571429 0.53571429 3.53571429 0.53571429 5 2 C5.04063832 3.66617115 5.042721 5.33388095 5 7 C0.25 8.125 0.25 8.125 -2 7 C-2.125 4.625 -2.125 4.625 -2 2 C-1.34 1.34 -0.68 0.68 0 0 Z " fill="#D7D7D7" transform="translate(68,11)"/>
<path d="M0 0 C1.67542976 0.28604898 3.34385343 0.61781233 5 1 C5 2.65 5 4.3 5 6 C2.625 6.625 2.625 6.625 0 7 C-0.66 6.34 -1.32 5.68 -2 5 C-1.46428571 1.46428571 -1.46428571 1.46428571 0 0 Z " fill="#CECECE" transform="translate(30,63)"/>
<path d="M0 0 C2.125 0.375 2.125 0.375 4 1 C4.625 2.875 4.625 2.875 5 5 C4.34 5.66 3.68 6.32 3 7 C0.875 6.625 0.875 6.625 -1 6 C-1.625 4.125 -1.625 4.125 -2 2 C-1.34 1.34 -0.68 0.68 0 0 Z " fill="#DADADA" transform="translate(51,63)"/>
<path d="M0 0 C2.31 0 4.62 0 7 0 C6.34 0.66 5.68 1.32 5 2 C4.3574765 4.06874034 4.3574765 4.06874034 4 6 C3.34 6 2.68 6 2 6 C1.34 4.02 0.68 2.04 0 0 Z " fill="#979797" transform="translate(232,28)"/>
<path d="M0 0 C2.0625 0.4375 2.0625 0.4375 4 1 C3.01 1.66 2.02 2.32 1 3 C0.67 3.99 0.34 4.98 0 6 C1.32 6.33 2.64 6.66 4 7 C3.01 7.33 2.02 7.66 1 8 C-0.5625 6.75 -0.5625 6.75 -2 5 C-1.74853421 2.86254078 -1.54074221 1.54074221 0 0 Z " fill="#C7C7C7" transform="translate(15,28)"/>
<path d="M0 0 C1.98 0.495 1.98 0.495 4 1 C3.67 2.32 3.34 3.64 3 5 C1.68 4.67 0.36 4.34 -1 4 C-0.67 2.68 -0.34 1.36 0 0 Z " fill="#BFBFBF" transform="translate(78,15)"/>
<path d="M0 0 C1.98 0.495 1.98 0.495 4 1 C3.67 2.32 3.34 3.64 3 5 C1.68 4.67 0.36 4.34 -1 4 C-0.67 2.68 -0.34 1.36 0 0 Z " fill="#BDBDBD" transform="translate(4,15)"/>
<path d="M0 0 C1.98 0.495 1.98 0.495 4 1 C3.67 2.32 3.34 3.64 3 5 C1.68 4.67 0.36 4.34 -1 4 C-0.67 2.68 -0.34 1.36 0 0 Z " fill="#A6A6A6" transform="translate(74,5)"/>
<path d="M0 0 C1.98 0.495 1.98 0.495 4 1 C3.67 2.32 3.34 3.64 3 5 C1.68 4.67 0.36 4.34 -1 4 C-0.67 2.68 -0.34 1.36 0 0 Z " fill="#BDBDBD" transform="translate(8,5)"/>
<path d="M0 0 C1.98 0.495 1.98 0.495 4 1 C3.67 2.32 3.34 3.64 3 5 C1.68 4.67 0.36 4.34 -1 4 C-0.67 2.68 -0.34 1.36 0 0 Z " fill="#BCBCBC" transform="translate(64,76)"/>
<path d="M0 0 C1.32 0 2.64 0 4 0 C4 1.32 4 2.64 4 4 C3.01 4.33 2.02 4.66 1 5 C0.34 4.67 -0.32 4.34 -1 4 C-0.67 2.68 -0.34 1.36 0 0 Z " fill="#B0B0B0" transform="translate(77,64)"/>
<path d="M0 0 C0.99 0.33 1.98 0.66 3 1 C2.67 2.32 2.34 3.64 2 5 C0.68 5 -0.64 5 -2 5 C-2 3.68 -2 2.36 -2 1 C-1.34 0.67 -0.68 0.34 0 0 Z " fill="#B3B3B3" transform="translate(10,57)"/>
<path d="M0 0 C1.98 0.495 1.98 0.495 4 1 C3.67 2.32 3.34 3.64 3 5 C1.68 4.67 0.36 4.34 -1 4 C-0.67 2.68 -0.34 1.36 0 0 Z " fill="#B1B1B1" transform="translate(9,21)"/>
<path d="M0 0 C0.99 0.33 1.98 0.66 3 1 C2.67 2.32 2.34 3.64 2 5 C0.68 4.67 -0.64 4.34 -2 4 C-2 3.01 -2 2.02 -2 1 C-1.34 0.67 -0.68 0.34 0 0 Z " fill="#B9B9B9" transform="translate(24,8)"/>
<path d="M0 0 C0.99 0.66 1.98 1.32 3 2 C2.67 2.99 2.34 3.98 2 5 C0.68 5 -0.64 5 -2 5 C-2 3.68 -2 2.36 -2 1 C-1.34 0.67 -0.68 0.34 0 0 Z " fill="#B8B8B8" transform="translate(76,73)"/>
<path d="M0 0 C1.98 0.495 1.98 0.495 4 1 C4 1.99 4 2.98 4 4 C3.01 4.33 2.02 4.66 1 5 C0.34 4.67 -0.32 4.34 -1 4 C-0.67 2.68 -0.34 1.36 0 0 Z " fill="#B3B3B3" transform="translate(58,71)"/>
<path d="M0 0 C2.475 0.495 2.475 0.495 5 1 C4.34 2.32 3.68 3.64 3 5 C2.01 4.67 1.02 4.34 0 4 C0 2.68 0 1.36 0 0 Z " fill="#B7B7B7" transform="translate(3,64)"/>
<path d="M0 0 C0.99 0.66 1.98 1.32 3 2 C2.67 2.99 2.34 3.98 2 5 C0.68 5 -0.64 5 -2 5 C-2 3.68 -2 2.36 -2 1 C-1.34 0.67 -0.68 0.34 0 0 Z " fill="#BBBBBB" transform="translate(73,57)"/>
<path d="M0 0 C0.99 0.33 1.98 0.66 3 1 C2.67 2.32 2.34 3.64 2 5 C0.68 4.67 -0.64 4.34 -2 4 C-2 3.01 -2 2.02 -2 1 C-1.34 0.67 -0.68 0.34 0 0 Z " fill="#BDBDBD" transform="translate(60,8)"/>
<path d="M0 0 C1.32 0 2.64 0 4 0 C3.67 1.65 3.34 3.3 3 5 C2.01 4.67 1.02 4.34 0 4 C0 2.68 0 1.36 0 0 Z " fill="#C7C7C7" transform="translate(15,76)"/>
<path d="M0 0 C1.32 0 2.64 0 4 0 C3.67 1.65 3.34 3.3 3 5 C2.01 4.67 1.02 4.34 0 4 C0 2.68 0 1.36 0 0 Z " fill="#C0C0C0" transform="translate(22,71)"/>
<path d="M0 0 C0.99 0.33 1.98 0.66 3 1 C3 2.32 3 3.64 3 5 C1.68 5 0.36 5 -1 5 C-0.67 3.35 -0.34 1.7 0 0 Z " fill="#C0C0C0" transform="translate(73,21)"/>
<path d="M0 0 C1.32 0 2.64 0 4 0 C4 1.32 4 2.64 4 4 C2.35 3.67 0.7 3.34 -1 3 C-0.67 2.01 -0.34 1.02 0 0 Z " fill="#C5C5C5" transform="translate(65,4)"/>
<path d="M0 0 C2.475 0.495 2.475 0.495 5 1 C4.67 1.99 4.34 2.98 4 4 C2.68 4 1.36 4 0 4 C0 2.68 0 1.36 0 0 Z " fill="#C6C6C6" transform="translate(16,4)"/>
<path d="M0 0 C0.66 0.33 1.32 0.66 2 1 C2 2.32 2 3.64 2 5 C0.68 5 -0.64 5 -2 5 C-2 3.68 -2 2.36 -2 1 C-1.34 0.67 -0.68 0.34 0 0 Z " fill="#C7C7C7" transform="translate(8,73)"/>
<path d="M0 0 C-0.28875 0.556875 -0.5775 1.11375 -0.875 1.6875 C-2.0413253 4.08494645 -3.0339881 6.51596939 -4 9 C-4.33 9 -4.66 9 -5 9 C-5.36666667 3.5 -5.36666667 3.5 -3.625 1.125 C-2 0 -2 0 0 0 Z " fill="#C7C7C7" transform="translate(31,46)"/>
<path d="M0 0 C1.32 0.33 2.64 0.66 4 1 C3.38125 1.433125 2.7625 1.86625 2.125 2.3125 C-0.2197245 3.99740483 -0.2197245 3.99740483 -2 7 C-2.33 6.01 -2.66 5.02 -3 4 C-1.5625 1.8125 -1.5625 1.8125 0 0 Z " fill="#A5A5A5" transform="translate(22,38)"/>
<path d="M0 0 C0.66 0.33 1.32 0.66 2 1 C1.21625 1.763125 0.4325 2.52625 -0.375 3.3125 C-3.07257717 5.90891805 -3.07257717 5.90891805 -5 9 C-4.5206753 4.68607774 -3.2542015 2.83430453 0 0 Z " fill="#B9B9B9" transform="translate(129,30)"/>
</svg>
