<svg width="21" height="21" viewBox="0 0 21 21" fill="none" xmlns="http://www.w3.org/2000/svg">
<path d="M10.449 11.6636C11.2967 11.6636 11.9839 10.9764 11.9839 10.1287C11.9839 9.28096 11.2967 8.59375 10.449 8.59375C9.60127 8.59375 8.91406 9.28096 8.91406 10.1287C8.91406 10.9764 9.60127 11.6636 10.449 11.6636Z" fill="white"/>
<path d="M12.9255 14.2534C13.7733 14.2534 14.4605 13.5662 14.4605 12.7185C14.4605 11.8708 13.7733 11.1836 12.9255 11.1836C12.0778 11.1836 11.3906 11.8708 11.3906 12.7185C11.3906 13.5662 12.0778 14.2534 12.9255 14.2534Z" fill="white"/>
<path d="M7.81617 14.2534C8.66388 14.2534 9.35109 13.5662 9.35109 12.7185C9.35109 11.8708 8.66388 11.1836 7.81617 11.1836C6.96846 11.1836 6.28125 11.8708 6.28125 12.7185C6.28125 13.5662 6.96846 14.2534 7.81617 14.2534Z" fill="white"/>
<path d="M12.9255 9.00734C13.7733 9.00734 14.4605 8.32013 14.4605 7.47242C14.4605 6.62471 13.7733 5.9375 12.9255 5.9375C12.0778 5.9375 11.3906 6.62471 11.3906 7.47242C11.3906 8.32013 12.0778 9.00734 12.9255 9.00734Z" fill="white"/>
<path d="M7.81617 9.00734C8.66388 9.00734 9.35109 8.32013 9.35109 7.47242C9.35109 6.62471 8.66388 5.9375 7.81617 5.9375C6.96846 5.9375 6.28125 6.62471 6.28125 7.47242C6.28125 8.32013 6.96846 9.00734 7.81617 9.00734Z" fill="white"/>
<path d="M5.65603 11.1968C6.22114 11.1968 6.67925 10.7387 6.67925 10.1736C6.67925 9.6085 6.22114 9.15039 5.65603 9.15039C5.09092 9.15039 4.63281 9.6085 4.63281 10.1736C4.63281 10.7387 5.09092 11.1968 5.65603 11.1968Z" fill="white"/>
<path d="M5.65603 15.8863C6.22114 15.8863 6.67925 15.4282 6.67925 14.8631C6.67925 14.298 6.22114 13.8398 5.65603 13.8398C5.09092 13.8398 4.63281 14.298 4.63281 14.8631C4.63281 15.4282 5.09092 15.8863 5.65603 15.8863Z" fill="white"/>
<path d="M7.69727 17.1738C8.10178 17.1738 8.42969 16.8459 8.42969 16.4414C8.42969 16.0369 8.10178 15.709 7.69727 15.709C7.29276 15.709 6.96484 16.0369 6.96484 16.4414C6.96484 16.8459 7.29276 17.1738 7.69727 17.1738Z" fill="white"/>
<path d="M13.0918 17.1738C13.4963 17.1738 13.8242 16.8459 13.8242 16.4414C13.8242 16.0369 13.4963 15.709 13.0918 15.709C12.6873 15.709 12.3594 16.0369 12.3594 16.4414C12.3594 16.8459 12.6873 17.1738 13.0918 17.1738Z" fill="white"/>
<path d="M5.65603 6.14409C6.22114 6.14409 6.67925 5.68598 6.67925 5.12087C6.67925 4.55577 6.22114 4.09766 5.65603 4.09766C5.09092 4.09766 4.63281 4.55577 4.63281 5.12087C4.63281 5.68598 5.09092 6.14409 5.65603 6.14409Z" fill="white"/>
<path d="M7.81501 4.38393C8.28239 4.38393 8.66128 4.00505 8.66128 3.53767C8.66128 3.07029 8.28239 2.69141 7.81501 2.69141C7.34763 2.69141 6.96875 3.07029 6.96875 3.53767C6.96875 4.00505 7.34763 4.38393 7.81501 4.38393Z" fill="white"/>
<path d="M13.1041 4.38393C13.5715 4.38393 13.9503 4.00505 13.9503 3.53767C13.9503 3.07029 13.5715 2.69141 13.1041 2.69141C12.6367 2.69141 12.2578 3.07029 12.2578 3.53767C12.2578 4.00505 12.6367 4.38393 13.1041 4.38393Z" fill="white"/>
<path d="M3.78376 8.15346C4.25114 8.15346 4.63002 7.77458 4.63002 7.3072C4.63002 6.83982 4.25114 6.46094 3.78376 6.46094C3.31638 6.46094 2.9375 6.83982 2.9375 7.3072C2.9375 7.77458 3.31638 8.15346 3.78376 8.15346Z" fill="white"/>
<path d="M16.8619 8.15346C17.3293 8.15346 17.7082 7.77458 17.7082 7.3072C17.7082 6.83982 17.3293 6.46094 16.8619 6.46094C16.3945 6.46094 16.0156 6.83982 16.0156 7.3072C16.0156 7.77458 16.3945 8.15346 16.8619 8.15346Z" fill="white"/>
<path d="M3.81111 3.81167C4.27848 3.81167 4.65737 3.43278 4.65737 2.9654C4.65737 2.49803 4.27848 2.11914 3.81111 2.11914C3.34373 2.11914 2.96484 2.49803 2.96484 2.9654C2.96484 3.43278 3.34373 3.81167 3.81111 3.81167Z" fill="white"/>
<path d="M17.565 3.81167C18.0324 3.81167 18.4113 3.43278 18.4113 2.9654C18.4113 2.49803 18.0324 2.11914 17.565 2.11914C17.0976 2.11914 16.7188 2.49803 16.7188 2.9654C16.7188 3.43278 17.0976 3.81167 17.565 3.81167Z" fill="white"/>
<path d="M3.81111 13.548C4.27848 13.548 4.65737 13.1691 4.65737 12.7017C4.65737 12.2344 4.27848 11.8555 3.81111 11.8555C3.34373 11.8555 2.96484 12.2344 2.96484 12.7017C2.96484 13.1691 3.34373 13.548 3.81111 13.548Z" fill="white"/>
<path d="M16.8619 13.548C17.3293 13.548 17.7082 13.1691 17.7082 12.7017C17.7082 12.2344 17.3293 11.8555 16.8619 11.8555C16.3945 11.8555 16.0156 12.2344 16.0156 12.7017C16.0156 13.1691 16.3945 13.548 16.8619 13.548Z" fill="white"/>
<path d="M3.35017 17.8859C3.81755 17.8859 4.19643 17.507 4.19643 17.0396C4.19643 16.5722 3.81755 16.1934 3.35017 16.1934C2.88279 16.1934 2.50391 16.5722 2.50391 17.0396C2.50391 17.507 2.88279 17.8859 3.35017 17.8859Z" fill="white"/>
<path d="M17.4361 17.8859C17.9035 17.8859 18.2824 17.507 18.2824 17.0396C18.2824 16.5722 17.9035 16.1934 17.4361 16.1934C16.9687 16.1934 16.5898 16.5722 16.5898 17.0396C16.5898 17.507 16.9687 17.8859 17.4361 17.8859Z" fill="white"/>
<path d="M2.09199 15.1859C2.34991 15.1859 2.55899 14.9769 2.55899 14.7189C2.55899 14.461 2.34991 14.252 2.09199 14.252C1.83408 14.252 1.625 14.461 1.625 14.7189C1.625 14.9769 1.83408 15.1859 2.09199 15.1859Z" fill="white"/>
<path d="M18.5803 15.1859C18.8382 15.1859 19.0473 14.9769 19.0473 14.7189C19.0473 14.461 18.8382 14.252 18.5803 14.252C18.3224 14.252 18.1133 14.461 18.1133 14.7189C18.1133 14.9769 18.3224 15.1859 18.5803 15.1859Z" fill="white"/>
<path d="M0.756057 16.8207C1.01397 16.8207 1.22305 16.6116 1.22305 16.3537C1.22305 16.0958 1.01397 15.8867 0.756057 15.8867C0.498143 15.8867 0.289062 16.0958 0.289062 16.3537C0.289062 16.6116 0.498143 16.8207 0.756057 16.8207Z" fill="white"/>
<path d="M19.9748 16.8207C20.2327 16.8207 20.4418 16.6116 20.4418 16.3537C20.4418 16.0958 20.2327 15.8867 19.9748 15.8867C19.7169 15.8867 19.5078 16.0958 19.5078 16.3537C19.5078 16.6116 19.7169 16.8207 19.9748 16.8207Z" fill="white"/>
<path d="M1.47481 19.3637C1.73272 19.3637 1.9418 19.1546 1.9418 18.8967C1.9418 18.6388 1.73272 18.4297 1.47481 18.4297C1.21689 18.4297 1.00781 18.6388 1.00781 18.8967C1.00781 19.1546 1.21689 19.3637 1.47481 19.3637Z" fill="white"/>
<path d="M19.3498 19.3637C19.6077 19.3637 19.8168 19.1546 19.8168 18.8967C19.8168 18.6388 19.6077 18.4297 19.3498 18.4297C19.0919 18.4297 18.8828 18.6388 18.8828 18.8967C18.8828 19.1546 19.0919 19.3637 19.3498 19.3637Z" fill="white"/>
<path d="M1.87715 1.43789C2.13506 1.43789 2.34414 1.22881 2.34414 0.9709C2.34414 0.712987 2.13506 0.503906 1.87715 0.503906C1.61924 0.503906 1.41016 0.712987 1.41016 0.9709C1.41016 1.22881 1.61924 1.43789 1.87715 1.43789Z" fill="white"/>
<path d="M19.217 1.43789C19.4749 1.43789 19.684 1.22881 19.684 0.9709C19.684 0.712987 19.4749 0.503906 19.217 0.503906C18.9591 0.503906 18.75 0.712987 18.75 0.9709C18.75 1.22881 18.9591 1.43789 19.217 1.43789Z" fill="white"/>
<path d="M4.16621 1.04727C4.42413 1.04727 4.63321 0.838189 4.63321 0.580275C4.63321 0.322362 4.42413 0.113281 4.16621 0.113281C3.9083 0.113281 3.69922 0.322362 3.69922 0.580275C3.69922 0.838189 3.9083 1.04727 4.16621 1.04727Z" fill="white"/>
<path d="M16.8615 1.04727C17.1194 1.04727 17.3285 0.838189 17.3285 0.580275C17.3285 0.322362 17.1194 0.113281 16.8615 0.113281C16.6036 0.113281 16.3945 0.322362 16.3945 0.580275C16.3945 0.838189 16.6036 1.04727 16.8615 1.04727Z" fill="white"/>
<path d="M5.81465 2.2875C6.07256 2.2875 6.28164 2.07842 6.28164 1.82051C6.28164 1.5626 6.07256 1.35352 5.81465 1.35352C5.55674 1.35352 5.34766 1.5626 5.34766 1.82051C5.34766 2.07842 5.55674 2.2875 5.81465 2.2875Z" fill="white"/>
<path d="M15.1897 2.2875C15.4476 2.2875 15.6566 2.07842 15.6566 1.82051C15.6566 1.5626 15.4476 1.35352 15.1897 1.35352C14.9317 1.35352 14.7227 1.5626 14.7227 1.82051C14.7227 2.07842 14.9317 2.2875 15.1897 2.2875Z" fill="white"/>
<path d="M0.756057 4.07461C1.01397 4.07461 1.22305 3.86553 1.22305 3.60762C1.22305 3.34971 1.01397 3.14062 0.756057 3.14062C0.498143 3.14062 0.289062 3.34971 0.289062 3.60762C0.289062 3.86553 0.498143 4.07461 0.756057 4.07461Z" fill="white"/>
<path d="M20.1506 4.07461C20.4085 4.07461 20.6176 3.86553 20.6176 3.60762C20.6176 3.34971 20.4085 3.14062 20.1506 3.14062C19.8927 3.14062 19.6836 3.34971 19.6836 3.60762C19.6836 3.86553 19.8927 4.07461 20.1506 4.07461Z" fill="white"/>
<path d="M2.09199 5.68399C2.34991 5.68399 2.55899 5.47491 2.55899 5.21699C2.55899 4.95908 2.34991 4.75 2.09199 4.75C1.83408 4.75 1.625 4.95908 1.625 5.21699C1.625 5.47491 1.83408 5.68399 2.09199 5.68399Z" fill="white"/>
<path d="M18.7482 5.68399C19.0062 5.68399 19.2152 5.47491 19.2152 5.21699C19.2152 4.95908 19.0062 4.75 18.7482 4.75C18.4903 4.75 18.2812 4.95908 18.2812 5.21699C18.2812 5.47491 18.4903 5.68399 18.7482 5.68399Z" fill="white"/>
<path d="M3.81856 20.0375C4.07647 20.0375 4.28555 19.8284 4.28555 19.5705C4.28555 19.3126 4.07647 19.1035 3.81856 19.1035C3.56064 19.1035 3.35156 19.3126 3.35156 19.5705C3.35156 19.8284 3.56064 20.0375 3.81856 20.0375Z" fill="white"/>
<path d="M16.5881 20.0375C16.846 20.0375 17.0551 19.8284 17.0551 19.5705C17.0551 19.3126 16.846 19.1035 16.5881 19.1035C16.3302 19.1035 16.1211 19.3126 16.1211 19.5705C16.1211 19.8284 16.3302 20.0375 16.5881 20.0375Z" fill="white"/>
<path d="M5.65449 18.6664C5.91241 18.6664 6.12149 18.4573 6.12149 18.1994C6.12149 17.9415 5.91241 17.7324 5.65449 17.7324C5.39658 17.7324 5.1875 17.9415 5.1875 18.1994C5.1875 18.4573 5.39658 18.6664 5.65449 18.6664Z" fill="white"/>
<path d="M14.9279 18.6664C15.1858 18.6664 15.3949 18.4573 15.3949 18.1994C15.3949 17.9415 15.1858 17.7324 14.9279 17.7324C14.67 17.7324 14.4609 17.9415 14.4609 18.1994C14.4609 18.4573 14.67 18.6664 14.9279 18.6664Z" fill="white"/>
<path d="M15.1912 11.1968C15.7563 11.1968 16.2144 10.7387 16.2144 10.1736C16.2144 9.6085 15.7563 9.15039 15.1912 9.15039C14.6261 9.15039 14.168 9.6085 14.168 10.1736C14.168 10.7387 14.6261 11.1968 15.1912 11.1968Z" fill="white"/>
<path d="M15.1912 15.8863C15.7563 15.8863 16.2144 15.4282 16.2144 14.8631C16.2144 14.298 15.7563 13.8398 15.1912 13.8398C14.6261 13.8398 14.168 14.298 14.168 14.8631C14.168 15.4282 14.6261 15.8863 15.1912 15.8863Z" fill="white"/>
<path d="M15.1912 6.14409C15.7563 6.14409 16.2144 5.68598 16.2144 5.12087C16.2144 4.55577 15.7563 4.09766 15.1912 4.09766C14.6261 4.09766 14.168 4.55577 14.168 5.12087C14.168 5.68598 14.6261 6.14409 15.1912 6.14409Z" fill="white"/>
<path d="M10.449 6.70659C11.0141 6.70659 11.4722 6.24848 11.4722 5.68337C11.4722 5.11827 11.0141 4.66016 10.449 4.66016C9.88389 4.66016 9.42578 5.11827 9.42578 5.68337C9.42578 6.24848 9.88389 6.70659 10.449 6.70659Z" fill="white"/>
<path d="M10.449 15.5933C11.0141 15.5933 11.4722 15.1352 11.4722 14.5701C11.4722 14.005 11.0141 13.5469 10.449 13.5469C9.88389 13.5469 9.42578 14.005 9.42578 14.5701C9.42578 15.1352 9.88389 15.5933 10.449 15.5933Z" fill="white"/>
</svg>
