<?xml version="1.0" encoding="UTF-8"?>
<svg version="1.1" xmlns="http://www.w3.org/2000/svg" width="259" height="80">
<path d="M0 0 C4.62 0 9.24 0 14 0 C15.65 7.59 17.3 15.18 19 23 C19.33 15.41 19.66 7.82 20 0 C22.64 0 25.28 0 28 0 C28 11.88 28 23.76 28 36 C23.38 36 18.76 36 14 36 C12.35 29.07 10.7 22.14 9 15 C8.67 21.93 8.34 28.86 8 36 C5.36 36 2.72 36 0 36 C0 24.12 0 12.24 0 0 Z M7 6 C8 9 8 9 8 9 Z " fill="#EEEEEE" transform="translate(164,24)"/>
<path d="M0 0 C3.031875 -0.061875 6.06375 -0.12375 9.1875 -0.1875 C10.60712036 -0.22846802 10.60712036 -0.22846802 12.05541992 -0.27026367 C16.88140236 -0.31790366 20.07903506 -0.13983521 24 3 C26.34491154 5.34491154 26.94327891 6.56513832 27.375 9.875 C26.94582372 13.45146898 25.77696734 15.89030715 24 19 C24.66 19.99 25.32 20.98 26 22 C26.1953125 25.35546875 26.1953125 25.35546875 26.125 29.1875 C26.10695313 30.45980469 26.08890625 31.73210938 26.0703125 33.04296875 C26.04710938 34.01878906 26.02390625 34.99460938 26 36 C23.36 36 20.72 36 18 36 C18 31.71 18 27.42 18 23 C14.7 23 11.4 23 8 23 C8 27.29 8 31.58 8 36 C5.36 36 2.72 36 0 36 C0 24.12 0 12.24 0 0 Z M7 7 C7 9.97 7 12.94 7 16 C13.39825263 16.47326369 13.39825263 16.47326369 19 14 C19.5 11.5 19.5 11.5 19 9 C14.7975546 6.19836974 11.99895065 6.85510288 7 7 Z " fill="#F0F0F0" transform="translate(99,24)"/>
<path d="M0 0 C3.58585675 4.59437896 3.21462856 8.87534145 3.25 14.4375 C3.270625 15.24058594 3.29125 16.04367188 3.3125 16.87109375 C3.35050047 22.63766569 2.31298724 25.86401488 -1.5 30.3125 C-5.31263089 33.48969241 -10.35407181 32.88734462 -15.04296875 32.84765625 C-19.24879851 32.44207425 -20.95119965 31.45083717 -24 28.5625 C-26.71102239 24.09970394 -26.36766544 19.770347 -26.375 14.6875 C-26.39949219 13.80191406 -26.42398438 12.91632812 -26.44921875 12.00390625 C-26.4751817 6.19685996 -25.80192876 3.00990547 -22 -1.4375 C-15.24604068 -6.16527153 -6.13877852 -4.98775754 0 0 Z M-18 5.5625 C-19.05336511 8.72259533 -19.20032888 11.1178136 -19.25 14.4375 C-19.27578125 15.46617188 -19.3015625 16.49484375 -19.328125 17.5546875 C-18.95297652 20.99354854 -18.09495116 22.8297417 -16 25.5625 C-12.90280523 26.55096642 -10.90484965 26.78871241 -7.75 26 C-5.10990493 23.83135048 -4.7359457 21.87425565 -4 18.5625 C-3.52311434 13.57507075 -3.81308566 9.15502011 -6 4.5625 C-10.50880097 1.36270577 -13.72942758 2.52814591 -18 5.5625 Z " fill="#F2F2F2" transform="translate(156,27.4375)"/>
<path d="M0 0 C5.08692247 -0.8770556 5.08692247 -0.8770556 8 0 C10.82628082 3.2638222 14 7.54362632 14 12 C14.66 12 15.32 12 16 12 C16.2475 11.13375 16.495 10.2675 16.75 9.375 C18.1377002 5.62820945 19.30755484 2.97586044 22 0 C24.84628036 -0.52345386 27.07564677 -0.29243532 30 0 C28.96570547 2.99343443 27.84949418 5.2040318 25.95703125 7.76953125 C23.5083575 11.24406104 21.98118603 13.84286973 21 18 C22.5717813 23.97769786 26.56008265 28.97056176 30 34 C30 34.66 30 35.32 30 36 C24.97927461 37.05699482 24.97927461 37.05699482 22 36 C19.09197971 32.28208247 17.02480752 28.2520958 15 24 C14.5875 24.86625 14.175 25.7325 13.75 26.625 C9.08927303 35.61354487 9.08927303 35.61354487 5.75390625 36.796875 C3.5625 36.75 3.5625 36.75 0 36 C0.83053998 31.04048981 3.91879456 27.21640841 6.6015625 23.0703125 C8.28886946 19.36577822 8.20948986 17.85113716 7 14 C5.40619014 11.07388423 5.40619014 11.07388423 3.4375 8.3125 C0 3.31187123 0 3.31187123 0 0 Z " fill="#EEEEEE" transform="translate(209,24)"/>
<path d="M0 0 C2.64 0 5.28 0 8 0 C8 11.88 8 23.76 8 36 C5.36 36 2.72 36 0 36 C0 24.12 0 12.24 0 0 Z " fill="#E7E7E7" transform="translate(197,24)"/>
<path d="M0 0 C2.60964149 1.03012164 3.83498357 1.58694861 5.375 3.9375 C5.875 6.875 5.875 6.875 5.375 9.9375 C3.1875 12.375 3.1875 12.375 0.375 13.9375 C-2.51981608 13.86857581 -4.03185358 13.32611317 -6.4375 11.75 C-8.25532494 8.97542509 -8.15350434 7.17458907 -7.625 3.9375 C-5.12171555 1.14812589 -3.80877374 -0.09068509 0 0 Z " fill="#C53241" transform="translate(46.625,33.0625)"/>
<path d="M0 0 C2.7912125 1.98322993 3.82597224 3.12986121 4.5 6.5 C4 9 4 9 2.4375 11.375 C0 13 0 13 -3.625 12.875 C-7 12 -7 12 -9 10 C-9.55021834 3.94759825 -9.55021834 3.94759825 -7.875 1.0625 C-5.06487736 -0.52990283 -3.17235276 -0.45319325 0 0 Z " fill="#BB332E" transform="translate(58,23)"/>
<path d="M0 0 C2.4375 1.625 2.4375 1.625 4 4 C4 7.51359068 3.6312066 9.27528132 1.3125 11.9375 C-1.83903422 13.38550221 -3.70949263 12.929926 -7 12 C-9 10 -9 10 -9.3125 6.5625 C-9 3 -9 3 -7.875 1.0625 C-5.06487736 -0.52990283 -3.17235276 -0.45319325 0 0 Z " fill="#B52A4F" transform="translate(58,44)"/>
<path d="M0 0 C1.875 1.0625 1.875 1.0625 3 3 C3.4375 6.5 3.4375 6.5 3 10 C1.375 12 1.375 12 -1 13 C-4.4803645 12.92897215 -6.29485909 12.61415498 -8.9375 10.3125 C-10.39615475 7.13778084 -10.00471852 5.30121799 -9 2 C-5.53076119 -0.31282587 -4.07794425 -0.42478586 0 0 Z " fill="#AB2461" transform="translate(38,44)"/>
<path d="M0 0 C1.875 1.0625 1.875 1.0625 3 3 C3.4375 6.5 3.4375 6.5 3 10 C0.93174529 12.37466282 -0.43428235 12.88685647 -3.5 13.5 C-6 13 -6 13 -8.375 10.8125 C-10 8 -10 8 -9.9375 5.375 C-7.88828636 0.18365877 -5.54148729 -0.69268591 0 0 Z " fill="#AF2A4A" transform="translate(38,23)"/>
<path d="M0 0 C2.625 0.5625 2.625 0.5625 5 2 C5.8125 4.625 5.8125 4.625 6 7 C3.75 8.625 3.75 8.625 1 10 C-1.3125 9.1875 -1.3125 9.1875 -3 8 C-3.1875 5.125 -3.1875 5.125 -3 2 C-2.01 1.34 -1.02 0.68 0 0 Z " fill="#B52E3B" transform="translate(63,15)"/>
<path d="M0 0 C0.763125 0.20625 1.52625 0.4125 2.3125 0.625 C2.9375 3.5 2.9375 3.5 3.3125 6.625 C1.3125 8.625 1.3125 8.625 -1.1875 8.875 C-3.6875 8.625 -3.6875 8.625 -5.6875 6.625 C-6 4.125 -6 4.125 -5.6875 1.625 C-2.6875 -0.375 -2.6875 -0.375 0 0 Z " fill="#9D1C70" transform="translate(46.6875,53.375)"/>
<path d="M0 0 C0.66 0.66 1.32 1.32 2 2 C1.67028521 5.29714793 1.3773161 6.6226839 -1 9 C-5.55555556 8.44444444 -5.55555556 8.44444444 -7 7 C-7.04080783 5.00041636 -7.04254356 2.99954746 -7 1 C-4.48718205 -0.25640898 -2.78302919 -0.20872719 0 0 Z " fill="#961973" transform="translate(67,36)"/>
<path d="M0 0 C2.4375 1.375 2.4375 1.375 3.25 4 C3.311875 4.78375 3.37375 5.5675 3.4375 6.375 C1.1875 8 1.1875 8 -1.5625 9.375 C-3.875 8.5625 -3.875 8.5625 -5.5625 7.375 C-5.30688677 5.0318787 -4.96979228 2.69656597 -4.5625 0.375 C-2.5625 -0.625 -2.5625 -0.625 0 0 Z " fill="#B22D39" transform="translate(27.5625,15.625)"/>
<path d="M0 0 C2.5 0.25 2.5 0.25 4.5 2.25 C4.17028521 5.54714793 3.8773161 6.8726839 1.5 9.25 C-3.05555556 8.69444444 -3.05555556 8.69444444 -4.5 7.25 C-4.6875 4.8125 -4.6875 4.8125 -4.5 2.25 C-2.5 0.25 -2.5 0.25 0 0 Z " fill="#B02C44" transform="translate(26.5,35.75)"/>
<path d="M0 0 C0 4 0 4 -1.4609375 5.703125 C-2.09257813 6.21359375 -2.72421875 6.7240625 -3.375 7.25 C-4.31472656 8.03117187 -4.31472656 8.03117187 -5.2734375 8.828125 C-7 10 -7 10 -9 10 C-9.78260048 7.18263828 -10.19511109 5.54030762 -9.1875 2.75 C-6.80751857 -0.75734105 -3.92275805 -0.08527735 0 0 Z " fill="#9E1C72" transform="translate(38,23)"/>
<path d="M0 0 C2.5 0.25 2.5 0.25 4.5 2.25 C4.17028521 5.54714793 3.8773161 6.8726839 1.5 9.25 C-3.05555556 8.69444444 -3.05555556 8.69444444 -4.5 7.25 C-4.6875 4.8125 -4.6875 4.8125 -4.5 2.25 C-2.5 0.25 -2.5 0.25 0 0 Z " fill="#B0265D" transform="translate(45.5,17.75)"/>
<path d="M0 0 C2.625 0.5625 2.625 0.5625 5 2 C5.9375 4.5 5.9375 4.5 6 7 C4 9 4 9 1.5 9.25 C-1 9 -1 9 -3 7 C-3.3125 4.5 -3.3125 4.5 -3 2 C-2.01 1.34 -1.02 0.68 0 0 Z " fill="#B32857" transform="translate(63,54)"/>
<path d="M0 0 C2.625 0.5625 2.625 0.5625 5 2 C5.9375 4.5 5.9375 4.5 6 7 C4 9 4 9 1.5 9.25 C-1 9 -1 9 -3 7 C-3.3125 4.5 -3.3125 4.5 -3 2 C-2.01 1.34 -1.02 0.68 0 0 Z " fill="#9F1C71" transform="translate(25,54)"/>
<path d="M0 0 C1.875 1.5 1.875 1.5 3 3 C2.195625 3.3403125 2.195625 3.3403125 1.375 3.6875 C-0.75025221 4.86198149 -2.30246801 6.04815247 -4.125 7.625 C-7 10 -7 10 -9 10 C-9.36103152 3.6217765 -9.36103152 3.6217765 -7.875 1.0625 C-5.11019567 -0.50422245 -3.11811483 -0.38976435 0 0 Z " fill="#9D1D6D" transform="translate(58,44)"/>
<path d="M0 0 C1.0828125 0.37125 1.0828125 0.37125 2.1875 0.75 C0.61631935 5.46354196 -2.75068614 8.04212409 -6.8125 10.75 C-7.8125 9.75 -7.8125 9.75 -8.1875 6.9375 C-7.8125 3.75 -7.8125 3.75 -5.625 1.3125 C-2.8125 -0.25 -2.8125 -0.25 0 0 Z " fill="#9D1A79" transform="translate(46.8125,33.25)"/>
<path d="M0 0 C-0.57889381 3.28754511 -1.54828411 4.93672495 -3.9375 7.25 C-4.46214844 7.77078125 -4.98679687 8.2915625 -5.52734375 8.828125 C-7 10 -7 10 -9 10 C-9.36103152 3.6217765 -9.36103152 3.6217765 -7.875 1.0625 C-5.214973 -0.44484863 -2.99793795 -0.19986253 0 0 Z " fill="#9D1B76" transform="translate(58,23)"/>
<path d="M0 0 C0.598125 0.20625 1.19625 0.4125 1.8125 0.625 C2.4375 3 2.4375 3 2.8125 5.625 C2.1525 6.285 1.4925 6.945 0.8125 7.625 C-1.8125 7.25 -1.8125 7.25 -4.1875 6.625 C-4.5175 4.975 -4.8475 3.325 -5.1875 1.625 C-2.1875 -0.375 -2.1875 -0.375 0 0 Z " fill="#8A157B" transform="translate(72.1875,46.375)"/>
<path d="M0 0 C0.598125 0.20625 1.19625 0.4125 1.8125 0.625 C2.4375 3 2.4375 3 2.8125 5.625 C2.1525 6.285 1.4925 6.945 0.8125 7.625 C-1.8125 7.25 -1.8125 7.25 -4.1875 6.625 C-4.5175 4.975 -4.8475 3.325 -5.1875 1.625 C-2.1875 -0.375 -2.1875 -0.375 0 0 Z " fill="#8E1775" transform="translate(20.1875,46.375)"/>
<path d="M0 0 C3.63 0 7.26 0 11 0 C11 1.65 11 3.3 11 5 C7.62182575 5.84454356 5.32534757 6.10844919 2 5 C2 4.01 2 3.02 2 2 C1.34 2 0.68 2 0 2 C0 1.34 0 0.68 0 0 Z " fill="#D9D9D9" transform="translate(243,24)"/>
<path d="M0 0 C1.67542976 0.28604898 3.34385343 0.61781233 5 1 C5.38218767 2.65614657 5.71395102 4.32457024 6 6 C5 7 5 7 2.5625 7.1875 C0 7 0 7 -2 5 C-1.46428571 1.46428571 -1.46428571 1.46428571 0 0 Z " fill="#AF2B40" transform="translate(71,64)"/>
<path d="M0 0 C2.625 0.375 2.625 0.375 5 1 C5.625 2.875 5.625 2.875 6 5 C4 7 4 7 1.375 7.125 C0.59125 7.08375 -0.1925 7.0425 -1 7 C-1.625 4.625 -1.625 4.625 -2 2 C-1.34 1.34 -0.68 0.68 0 0 Z " fill="#AE2B3F" transform="translate(17,25)"/>
<path d="M0 0 C2.625 0.375 2.625 0.375 5 1 C6.125 4.75 6.125 4.75 5 7 C3.02 7 1.04 7 -1 7 C-1.625 4.625 -1.625 4.625 -2 2 C-1.34 1.34 -0.68 0.68 0 0 Z " fill="#A3215C" transform="translate(69,25)"/>
<path d="M0 0 C2.625 0.375 2.625 0.375 5 1 C6.125 4.75 6.125 4.75 5 7 C3.02 7 1.04 7 -1 7 C-1.625 4.625 -1.625 4.625 -2 2 C-1.34 1.34 -0.68 0.68 0 0 Z " fill="#B02C3F" transform="translate(54,10)"/>
<path d="M0 0 C1.67542976 0.28604898 3.34385343 0.61781233 5 1 C6.125 4.75 6.125 4.75 5 7 C2.625 7.125 2.625 7.125 0 7 C-0.66 6.34 -1.32 5.68 -2 5 C-1.46428571 1.46428571 -1.46428571 1.46428571 0 0 Z " fill="#B52C43" transform="translate(15,64)"/>
<path d="M0 0 C1.67542976 0.28604898 3.34385343 0.61781233 5 1 C5.33 2.32 5.66 3.64 6 5 C3.525 6.485 3.525 6.485 1 8 C-0.5625 6.75 -0.5625 6.75 -2 5 C-1.74853421 2.86254078 -1.54074221 1.54074221 0 0 Z " fill="#B02B3F" transform="translate(33,10)"/>
<path d="M0 0 C1.2065625 0.0309375 1.2065625 0.0309375 2.4375 0.0625 C3.0975 1.3825 3.7575 2.7025 4.4375 4.0625 C3.4475 5.5475 3.4475 5.5475 2.4375 7.0625 C0.7875 6.7325 -0.8625 6.4025 -2.5625 6.0625 C-2.94468767 4.40635343 -3.27645102 2.73792976 -3.5625 1.0625 C-2.5625 0.0625 -2.5625 0.0625 0 0 Z " fill="#BE2D3D" transform="translate(73.5625,7.9375)"/>
<path d="M0 0 C2.375 -0.125 2.375 -0.125 5 0 C5.66 0.66 6.32 1.32 7 2 C6.625 4.125 6.625 4.125 6 6 C3.625 6.625 3.625 6.625 1 7 C0.34 6.34 -0.32 5.68 -1 5 C-0.625 2.375 -0.625 2.375 0 0 Z " fill="#9A197A" transform="translate(16,8)"/>
<path d="M0 0 C0.66 0.33 1.32 0.66 2 1 C2.25 3.3125 2.25 3.3125 2 6 C0.25 7.8125 0.25 7.8125 -2 9 C-3.32 9 -4.64 9 -6 9 C-6.33 8.01 -6.66 7.02 -7 6 C-4.69 4.02 -2.38 2.04 0 0 Z " fill="#C53433" transform="translate(39,48)"/>
<path d="M0 0 C0.99 0.33 1.98 0.66 3 1 C1.33248852 4.94139078 -1.22710649 7.7892812 -4 11 C-5.32 10.67 -6.64 10.34 -8 10 C-7.59007812 9.52949219 -7.18015625 9.05898438 -6.7578125 8.57421875 C-6.21898437 7.95160156 -5.68015625 7.32898438 -5.125 6.6875 C-4.59132812 6.07261719 -4.05765625 5.45773438 -3.5078125 4.82421875 C-1.8359553 2.86501788 -1.8359553 2.86501788 0 0 Z " fill="#AE2755" transform="translate(58,24)"/>
<path d="M0 0 C-3 3 -6 6 -9 9 C-9.89674777 6.48910624 -10.13172674 5.35464891 -9.1875 2.8125 C-6.83988479 -0.77070217 -3.95949234 -0.08607592 0 0 Z " fill="#971682" transform="translate(38,44)"/>
<path d="M0 0 C1.67542976 0.28604898 3.34385343 0.61781233 5 1 C5.5625 2.9375 5.5625 2.9375 6 5 C5 6 5 6 2.4375 6.0625 C1.2309375 6.0315625 1.2309375 6.0315625 0 6 C-0.38218767 4.34385343 -0.71395102 2.67542976 -1 1 C-0.67 0.67 -0.34 0.34 0 0 Z " fill="#B73238" transform="translate(32,62)"/>
<path d="M0 0 C1.65 0.33 3.3 0.66 5 1 C4.67 2.65 4.34 4.3 4 6 C2.35 6 0.7 6 -1 6 C-1.33 5.01 -1.66 4.02 -2 3 C-1.34 2.01 -0.68 1.02 0 0 Z " fill="#A42258" transform="translate(54,62)"/>
<path d="M0 0 C0.66 0.33 1.32 0.66 2 1 C2.125 3.375 2.125 3.375 2 6 C0 8 0 8 -2.625 8.125 C-3.40875 8.08375 -4.1925 8.0425 -5 8 C-3.62845496 5.04590299 -2.01136276 2.55991624 0 0 Z " fill="#C83632" transform="translate(39,27)"/>
<path d="M0 0 C2.6875 0.875 2.6875 0.875 5 2 C0.375 6.875 0.375 6.875 -3 8 C-3.1875 5.125 -3.1875 5.125 -3 2 C-2.01 1.34 -1.02 0.68 0 0 Z " fill="#8D1576" transform="translate(63,15)"/>
<path d="M0 0 C0.99 0 1.98 0 3 0 C1.75023244 3.65316671 1.32901247 4.78065836 -2 7 C-4.1875 6.625 -4.1875 6.625 -6 6 C-4 4 -2 2 0 0 Z " fill="#C8362D" transform="translate(59,50)"/>
<path d="M0 0 C0.99 0 1.98 0 3 0 C2.25 4.75 2.25 4.75 0 7 C-2.125 6.625 -2.125 6.625 -4 6 C-2.84826645 3.53199953 -1.95216435 1.95216435 0 0 Z " fill="#BA3038" transform="translate(66,38)"/>
<path d="M0 0 C-1.12005631 3.36016893 -2.37211797 4.69064913 -5 7 C-5.66 7 -6.32 7 -7 7 C-6.74438677 4.6568787 -6.40729228 2.32156597 -6 0 C-3.50907189 -1.24546405 -2.58919267 -0.7767578 0 0 Z " fill="#931674" transform="translate(29,16)"/>
<path d="M0 0 C0.66 0.33 1.32 0.66 2 1 C0.90809958 3.18380083 -0.1409877 4.42698959 -2 6 C-2.99 6 -3.98 6 -5 6 C-5.33 7.65 -5.66 9.3 -6 11 C-6.66 10.67 -7.32 10.34 -8 10 C-6.5682479 4.98886765 -4.01554307 3.05530451 0 0 Z " fill="#AF265B" transform="translate(49,35)"/>
<path d="M0 0 C0.94875 0.04125 1.8975 0.0825 2.875 0.125 C1.885 0.455 0.895 0.785 -0.125 1.125 C-0.434375 1.764375 -0.74375 2.40375 -1.0625 3.0625 C-2.3592338 5.57968915 -3.5471737 6.09386948 -6.125 7.125 C-5.03177966 0.20127119 -5.03177966 0.20127119 0 0 Z " fill="#8C118E" transform="translate(55.125,43.875)"/>
<path d="M0 0 C1.32 0.66 2.64 1.32 4 2 C1.69 3.65 -0.62 5.3 -3 7 C-3.1875 4.625 -3.1875 4.625 -3 2 C-2.01 1.34 -1.02 0.68 0 0 Z " fill="#911482" transform="translate(63,54)"/>
<path d="M0 0 C0.625 1.875 0.625 1.875 1 4 C-1 6 -1 6 -3.625 6.125 C-4.40875 6.08375 -5.1925 6.0425 -6 6 C-4 4 -2 2 0 0 Z " fill="#C1352F" transform="translate(49,56)"/>
<path d="M0 0 C-0.33 1.32 -0.66 2.64 -1 4 C-2.65 4.33 -4.3 4.66 -6 5 C-6 4.01 -6 3.02 -6 2 C-3 0 -3 0 0 0 Z " fill="#B52F36" transform="translate(75,49)"/>
<path d="M0 0 C1.32 0.33 2.64 0.66 4 1 C0.535 3.97 0.535 3.97 -3 7 C-2.25 2.25 -2.25 2.25 0 0 Z " fill="#870F90" transform="translate(52,23)"/>
<path d="M0 0 C0.625 1.875 0.625 1.875 1 4 C0.34 4.66 -0.32 5.32 -1 6 C-2.32 6 -3.64 6 -5 6 C-3.63016497 2.83884224 -3.0109362 2.0072908 0 0 Z " fill="#C2362F" transform="translate(30,57)"/>
<path d="M0 0 C-4.75 4.875 -4.75 4.875 -7 6 C-6.625 3.0625 -6.625 3.0625 -6 0 C-3.50907189 -1.24546405 -2.58919267 -0.7767578 0 0 Z " fill="#861091" transform="translate(36,24)"/>
<path d="M0 0 C0.99 0 1.98 0 3 0 C2.67 1.32 2.34 2.64 2 4 C0.35 4.33 -1.3 4.66 -3 5 C-1.125 1.125 -1.125 1.125 0 0 Z " fill="#BF3139" transform="translate(20,10)"/>
<path d="M0 0 C0.33 0 0.66 0 1 0 C1.3125 2.75 1.3125 2.75 1 6 C-1.3125 8.4375 -1.3125 8.4375 -4 10 C-4.99 9.67 -5.98 9.34 -7 9 C-6.071875 8.87625 -6.071875 8.87625 -5.125 8.75 C-2.86527098 8.19396046 -2.86527098 8.19396046 -1.8125 6.1875 C-1.05060061 4.13623242 -0.45824008 2.13845369 0 0 Z " fill="#A6311C" transform="translate(51,37)"/>
<path d="M0 0 C0.6875 1.8125 0.6875 1.8125 1 4 C-0.25 5.75 -0.25 5.75 -2 7 C-2.99 7 -3.98 7 -5 7 C-4.67 6.01 -4.34 5.02 -4 4 C-3.34 4 -2.68 4 -2 4 C-1.34 2.68 -0.68 1.36 0 0 Z " fill="#C3342F" transform="translate(49,20)"/>
<path d="M0 0 C0.78375 0.04125 1.5675 0.0825 2.375 0.125 C1.39933888 1.29459987 0.419375 2.46061177 -0.5625 3.625 C-1.10777344 4.2746875 -1.65304688 4.924375 -2.21484375 5.59375 C-2.68019531 6.0990625 -3.14554688 6.604375 -3.625 7.125 C-3.955 7.125 -4.285 7.125 -4.625 7.125 C-4.75 4.75 -4.75 4.75 -4.625 2.125 C-2.625 0.125 -2.625 0.125 0 0 Z " fill="#8E1386" transform="translate(45.625,17.875)"/>
<path d="M0 0 C1.67542976 0.28604898 3.34385343 0.61781233 5 1 C0.25 5 0.25 5 -2 5 C-1.125 1.125 -1.125 1.125 0 0 Z " fill="#8E147C" transform="translate(71,64)"/>
<path d="M0 0 C0.625 1.875 0.625 1.875 1 4 C0.34 4.66 -0.32 5.32 -1 6 C-2.32 6 -3.64 6 -5 6 C-5 5.34 -5 4.68 -5 4 C-4.01 4 -3.02 4 -2 4 C-2 3.01 -2 2.02 -2 1 C-1.34 0.67 -0.68 0.34 0 0 Z " fill="#C5362E" transform="translate(68,57)"/>
<path d="M0 0 C0.99 0 1.98 0 3 0 C2.67 1.32 2.34 2.64 2 4 C0.35 4.33 -1.3 4.66 -3 5 C-1.6875 2.5 -1.6875 2.5 0 0 Z " fill="#BB3030" transform="translate(20,49)"/>
<path d="M0 0 C1.2065625 0.0309375 1.2065625 0.0309375 2.4375 0.0625 C-2.3125 4.9375 -2.3125 4.9375 -4.5625 6.0625 C-3.48963568 0.08511307 -3.48963568 0.08511307 0 0 Z " fill="#931486" transform="translate(26.5625,35.9375)"/>
<path d="M0 0 C0.99 0.33 1.98 0.66 3 1 C-1.75 5 -1.75 5 -4 5 C-4.33 5.66 -4.66 6.32 -5 7 C-4.6189482 4.23737447 -4.16402868 3.15856106 -2.125 1.1875 C-1.42375 0.795625 -0.7225 0.40375 0 0 Z " fill="#7F0C99" transform="translate(44,33)"/>
<path d="M0 0 C1.32 0 2.64 0 4 0 C4 0.66 4 1.32 4 2 C2.03852126 3.38938077 0.03833424 4.7260411 -2 6 C-1.125 1.125 -1.125 1.125 0 0 Z " fill="#8E1480" transform="translate(17,25)"/>
<path d="M0 0 C1.98 0.495 1.98 0.495 4 1 C4 1.99 4 2.98 4 4 C3.01 4.33 2.02 4.66 1 5 C0.34 4.67 -0.32 4.34 -1 4 C-0.67 2.68 -0.34 1.36 0 0 Z " fill="#9E1F59" transform="translate(77,18)"/>
<path d="M0 0 C1.32 0 2.64 0 4 0 C4 0.66 4 1.32 4 2 C2.37373596 3.38232443 0.7074998 4.71937515 -1 6 C-1.625 4.125 -1.625 4.125 -2 2 C-1.34 1.34 -0.68 0.68 0 0 Z " fill="#93167F" transform="translate(33,10)"/>
<path d="M0 0 C1.65 0 3.3 0 5 0 C3.71937515 1.7074998 2.38232443 3.37373596 1 5 C0.34 5 -0.32 5 -1 5 C-0.67 3.35 -0.34 1.7 0 0 Z " fill="#93157F" transform="translate(71,8)"/>
<path d="M0 0 C1.98 0.495 1.98 0.495 4 1 C3.34 2.32 2.68 3.64 2 5 C1.01 4.67 0.02 4.34 -1 4 C-0.67 2.68 -0.34 1.36 0 0 Z " fill="#932156" transform="translate(79,1)"/>
<path d="M0 0 C1.32 0 2.64 0 4 0 C3.1875 1.9375 3.1875 1.9375 2 4 C1.01 4.33 0.02 4.66 -1 5 C-0.67 3.35 -0.34 1.7 0 0 Z " fill="#931685" transform="translate(32,62)"/>
<path d="M0 0 C2.0625 0.4375 2.0625 0.4375 4 1 C4 1.99 4 2.98 4 4 C3.01 4.33 2.02 4.66 1 5 C0.34 3.68 -0.32 2.36 -1 1 C-0.67 0.67 -0.34 0.34 0 0 Z " fill="#931F5D" transform="translate(76,56)"/>
<path d="M0 0 C-0.66 1.32 -1.32 2.64 -2 4 C-2.66 4 -3.32 4 -4 4 C-4.66 5.32 -5.32 6.64 -6 8 C-5.6875 5.125 -5.6875 5.125 -5 2 C-2 0 -2 0 0 0 Z " fill="#7E0D8D" transform="translate(34,44)"/>
<path d="M0 0 C1.32 0 2.64 0 4 0 C4 1.32 4 2.64 4 4 C2.35 3.67 0.7 3.34 -1 3 C-0.67 2.01 -0.34 1.02 0 0 Z " fill="#99215A" transform="translate(5,12)"/>
<path d="M0 0 C1.32 0 2.64 0 4 0 C4 0.66 4 1.32 4 2 C0.53846154 5 0.53846154 5 -2 5 C-1.125 1.125 -1.125 1.125 0 0 Z " fill="#8F1482" transform="translate(54,10)"/>
<path d="M0 0 C1.32 0 2.64 0 4 0 C3.67 1.32 3.34 2.64 3 4 C1.68 3.67 0.36 3.34 -1 3 C-0.67 2.01 -0.34 1.02 0 0 Z " fill="#A42458" transform="translate(8,73)"/>
<path d="M0 0 C1.98 0.495 1.98 0.495 4 1 C3.67 1.99 3.34 2.98 3 4 C1.68 4 0.36 4 -1 4 C-0.67 2.68 -0.34 1.36 0 0 Z " fill="#A52157" transform="translate(25,70)"/>
<path d="M0 0 C1.32 0 2.64 0 4 0 C3.67 1.32 3.34 2.64 3 4 C1.68 3.67 0.36 3.34 -1 3 C-0.67 2.01 -0.34 1.02 0 0 Z " fill="#A5225A" transform="translate(5,63)"/>
<path d="M0 0 C2.475 0.495 2.475 0.495 5 1 C4.67 1.99 4.34 2.98 4 4 C2.68 3.67 1.36 3.34 0 3 C0 2.01 0 1.02 0 0 Z " fill="#A72656" transform="translate(81,63)"/>
<path d="M0 0 C2.0625 0.4375 2.0625 0.4375 4 1 C2.71034824 2.37562854 1.37310707 3.70766393 0 5 C-0.66 5 -1.32 5 -2 5 C-1.125 1.125 -1.125 1.125 0 0 Z " fill="#931483" transform="translate(15,64)"/>
<path d="M0 0 C0.99 0 1.98 0 3 0 C2.67 1.65 2.34 3.3 2 5 C1.01 4.67 0.02 4.34 -1 4 C-0.67 2.68 -0.34 1.36 0 0 Z " fill="#901D53" transform="translate(11,56)"/>
<path d="M0 0 C2.31 0 4.62 0 7 0 C6.01 0.33 5.02 0.66 4 1 C4 2.32 4 3.64 4 5 C3.34 5 2.68 5 2 5 C2 4.01 2 3.02 2 2 C1.34 2 0.68 2 0 2 C0 1.34 0 0.68 0 0 Z " fill="#CBCBCB" transform="translate(243,24)"/>
<path d="M0 0 C2.475 0.495 2.475 0.495 5 1 C4.67 1.99 4.34 2.98 4 4 C2.68 3.67 1.36 3.34 0 3 C0 2.01 0 1.02 0 0 Z " fill="#A32150" transform="translate(62,5)"/>
<path d="M0 0 C2.475 0.495 2.475 0.495 5 1 C4.67 1.99 4.34 2.98 4 4 C2.68 3.67 1.36 3.34 0 3 C0 2.01 0 1.02 0 0 Z " fill="#9C245A" transform="translate(18,0)"/>
<path d="M0 0 C0.99 0.33 1.98 0.66 3 1 C2.67 2.32 2.34 3.64 2 5 C1.01 4.67 0.02 4.34 -1 4 C-0.67 2.68 -0.34 1.36 0 0 Z " fill="#9B2258" transform="translate(69,75)"/>
<path d="M0 0 C0.99 0.33 1.98 0.66 3 1 C2.67 2.32 2.34 3.64 2 5 C1.01 4.67 0.02 4.34 -1 4 C-0.67 2.68 -0.34 1.36 0 0 Z " fill="#982158" transform="translate(18,75)"/>
<path d="M0 0 C1.32 0 2.64 0 4 0 C4 1.32 4 2.64 4 4 C2.68 4 1.36 4 0 4 C0 2.68 0 1.36 0 0 Z " fill="#A42554" transform="translate(79,73)"/>
<path d="M0 0 C0.99 0.33 1.98 0.66 3 1 C2.67 2.32 2.34 3.64 2 5 C1.01 4.67 0.02 4.34 -1 4 C-0.67 2.68 -0.34 1.36 0 0 Z " fill="#A82455" transform="translate(11,18)"/>
<path d="M0 0 C1.32 0 2.64 0 4 0 C4 1.32 4 2.64 4 4 C2.68 4 1.36 4 0 4 C0 2.68 0 1.36 0 0 Z " fill="#AE265C" transform="translate(82,12)"/>
<path d="M0 0 C1.32 0 2.64 0 4 0 C4 1.32 4 2.64 4 4 C2.68 4 1.36 4 0 4 C0 2.68 0 1.36 0 0 Z " fill="#A32452" transform="translate(25,5)"/>
<path d="M0 0 C0.99 0.33 1.98 0.66 3 1 C2.67 2.32 2.34 3.64 2 5 C1.01 4.67 0.02 4.34 -1 4 C-0.67 2.68 -0.34 1.36 0 0 Z " fill="#A6235B" transform="translate(10,1)"/>
<path d="M0 0 C1.32 0 2.64 0 4 0 C4 1.32 4 2.64 4 4 C2.68 4 1.36 4 0 4 C0 2.68 0 1.36 0 0 Z " fill="#AB2655" transform="translate(69,0)"/>
<path d="M0 0 C0.99 0 1.98 0 3 0 C3 1.32 3 2.64 3 4 C1.68 4 0.36 4 -1 4 C-0.67 2.68 -0.34 1.36 0 0 Z " fill="#A6225E" transform="translate(62,70)"/>
</svg>
